<?xml version="1.0" encoding="UTF-8" standalone="no"?><!DOCTYPE svg PUBLIC "-//W3C//DTD SVG 1.1//EN" "http://www.w3.org/Graphics/SVG/1.1/DTD/svg11.dtd"><svg width="100%" height="100%" viewBox="0 0 156 17" version="1.1" xmlns="http://www.w3.org/2000/svg" xmlns:xlink="http://www.w3.org/1999/xlink" xml:space="preserve" xmlns:serif="http://www.serif.com/" style="fill-rule:evenodd;clip-rule:evenodd;stroke-linejoin:round;stroke-miterlimit:1.41421;"><g><g transform="matrix(0.24,0,0,0.24,-524.196,-663.035)"><g transform="matrix(1.00335,0,0,1,-7.57359,0)"><text x="2260.34px" y="2812.76px" style="font-family:'Raleway-Regular', 'Raleway', sans-serif;font-size:45.833px;fill:#fff;fill-opacity:0.8;">n<tspan x="2287.69px " y="2812.76px ">e</tspan></text></g><g transform="matrix(1.00335,0,0,1,-7.7581,0)"><text x="2315.41px" y="2812.76px" style="font-family:'Raleway-Regular', 'Raleway', sans-serif;font-size:45.833px;fill:#fff;fill-opacity:0.8;">f</text></g><g transform="matrix(1.00335,0,0,1,-7.81318,0)"><text x="2331.85px" y="2812.76px" style="font-family:'Raleway-Regular', 'Raleway', sans-serif;font-size:45.833px;fill:#fff;fill-opacity:0.8;">a<tspan x="2357.46px 2374.18px 2384.8px 2412.7px 2440.55px 2463.5px " y="2812.76px 2812.76px 2812.76px 2812.76px 2812.76px 2812.76px ">riousc</tspan></text></g><g transform="matrix(1.00335,0,0,1,-8.34248,0)"><text x="2489.82px" y="2812.76px" style="font-family:'Raleway-Regular', 'Raleway', sans-serif;font-size:45.833px;fill:#fff;fill-opacity:0.8;">r</text></g><g transform="matrix(1.00335,0,0,1,-8.39657,0)"><text x="2505.96px" y="2812.76px" style="font-family:'Raleway-Regular', 'Raleway', sans-serif;font-size:45.833px;fill:#fff;fill-opacity:0.8;">e<tspan x="2533.49px 2559.1px 2575.09px 2585.71px 2613.61px " y="2812.76px 2812.76px 2812.76px 2812.76px 2812.76px ">ation</tspan></text></g><g transform="matrix(1.00335,0,0,1,-8.85041,0)"><text x="2641.41px" y="2812.76px" style="font-family:'Raleway-Regular', 'Raleway', sans-serif;font-size:45.833px;fill:#fff;fill-opacity:0.8;">s</text></g><g transform="matrix(1.00335,0,0,1,-8.92968,0)"><text x="2665.07px" y="2812.76px" style="font-family:'Raleway-Regular', 'Raleway', sans-serif;font-size:45.833px;fill:#fff;fill-opacity:0.4;">.<tspan x="2674.36px 2700.15px " y="2812.76px 2812.76px ">co</tspan></text></g><g transform="matrix(1.00335,0,0,1,-9.14142,0)"><text x="2728.26px" y="2812.76px" style="font-family:'Raleway-Regular', 'Raleway', sans-serif;font-size:45.833px;fill:#fff;fill-opacity:0.4;">m<tspan x="2771.64px " y="2812.76px ">.</tspan></text></g><g transform="matrix(1.00335,0,0,1,-9.32061,0)"><text x="2781.74px" y="2812.76px" style="font-family:'Raleway-Regular', 'Raleway', sans-serif;font-size:45.833px;fill:#fff;fill-opacity:0.4;">a<tspan x="2807.35px " y="2812.76px ">u</tspan></text></g></g><g><path d="M10.936,1.086l-0.133,0.152l0.076,0.076c0.038,-0.057 0.095,-0.095 0.114,-0.152c0.019,-0.019 -0.019,-0.038 -0.057,-0.076m-0.133,0.496c-0.02,0 -0.039,0.019 -0.058,0.038c0.019,0 0.038,0.019 0.058,0.038c0.018,0 0.057,-0.019 0.133,-0.057c-0.076,-0.019 -0.115,-0.019 -0.133,-0.019m-0.306,0.668c-0.038,0.019 -0.076,0.019 -0.115,0.056c0.039,0 0.058,0.02 0.077,0.02c0.019,0 0.057,-0.02 0.057,-0.038l-0.019,-0.038Zm-0.229,0.63c0,0.018 -0.038,0.037 -0.038,0.037l0.076,0.076c0.019,-0.037 0.057,-0.057 0.039,-0.076c-0.02,-0.019 -0.039,-0.019 -0.077,-0.037m-0.286,-1.126c-0.019,0 -0.019,-0.02 -0.019,-0.02l0.038,-0.019l0,0.039l-0.019,0Zm-0.095,0.228l-0.076,0.077l0,0.018c0,0.02 0.018,0.02 0,0.039c0,0.019 -0.019,0.038 -0.039,0.058l0,-0.039c0.02,-0.019 0.02,-0.038 0.039,-0.058l0,-0.018l0.037,-0.077l0.039,0Zm-0.076,2.29c-0.019,-0.019 -0.039,-0.019 -0.039,-0.019c-0.019,0 -0.019,0.019 -0.019,0.019l0.058,0Zm0.018,0.496c-0.018,0 -0.037,-0.02 -0.057,-0.02l-0.038,0.02c0,0.019 0.038,0.038 0.058,0.057l0.037,-0.057Zm-0.247,-2.347l-0.02,0l0.02,0Zm-0.02,0.496c-0.019,0.019 -0.057,0.039 -0.076,0.058l-0.038,-0.058c0.076,-0.133 0.134,-0.267 0.21,-0.419c0,0 0.019,-0.019 0.037,-0.019c0,0 0.02,0.019 0.02,0.038c-0.057,0.133 -0.096,0.267 -0.153,0.4m-0.114,0.229c0,0 -0.019,0.02 -0.039,0.02l0,-0.02c0,-0.019 0.02,-0.019 0.039,-0.019c0,0 0.019,0.019 0,0.019m-0.248,0.706c-0.019,-0.019 -0.038,-0.019 -0.038,-0.038c0.019,-0.076 0.057,-0.153 0.095,-0.229c0,-0.019 0.019,-0.019 0.038,-0.019c0,0.076 -0.019,0.172 -0.038,0.248c0,0 -0.019,0.019 -0.057,0.038m0.343,1.793c-0.095,-0.038 -0.153,-0.21 -0.324,-0.057c-0.095,0.096 -0.114,0.172 -0.229,0.382c0.134,-0.019 0.21,-0.019 0.267,-0.057c0.095,-0.039 0.114,-0.076 0.21,-0.115c0.057,-0.019 0.133,0 0.191,0c-0.039,-0.058 -0.039,-0.134 -0.115,-0.153m-1.24,4.064l-0.038,-0.038c-0.038,0.019 -0.057,0.038 -0.076,0.077l0.038,0.037l0.076,-0.076Zm-2.404,3.091c-0.038,0.019 -0.076,0.076 -0.114,0.114c0.038,0.038 0.076,0.076 0.114,0.076c0.038,0 0.096,-0.057 0.172,-0.114c-0.076,-0.038 -0.134,-0.076 -0.172,-0.076m-0.229,-1.126l-0.076,0.058l0.038,0.057c0.019,-0.039 0.058,-0.057 0.076,-0.076c0,0 -0.038,-0.02 -0.038,-0.039m-0.057,-0.591l0,-0.019c-0.019,0 -0.038,0 -0.057,0.019l0,0.019l0.057,-0.019Zm-0.191,-1.259l-0.056,0c-0.039,0.019 -0.058,0.037 -0.078,0.056l0.058,0.02l0.076,-0.076Zm-0.706,-2.213c-0.095,0.057 -0.19,0.133 -0.305,0.209c0.019,0 0.058,0.038 0.077,0.038c0.114,-0.038 0.228,-0.095 0.4,-0.171c-0.095,-0.057 -0.152,-0.095 -0.172,-0.076m-0.4,-0.687l0,-0.019l-0.039,0l-0.018,0.038l0.057,-0.019Zm7.192,-5.151c-0.018,0.171 -0.152,0.304 -0.362,0.438c-0.153,0.095 -0.191,0.249 -0.248,0.382c-0.057,0.076 -0.038,0.171 -0.057,0.267c-0.02,0.038 -0.038,0.115 -0.096,0.153c-0.095,0.095 -0.286,0.172 -0.076,0.248c0.038,0.019 -0.019,0.114 -0.038,0.171c-0.134,0.401 0.019,0.477 -0.153,1.05c-0.077,0.209 -0.172,0.419 -0.248,0.629c-0.114,0.267 -0.153,0.42 -0.172,0.763c-0.038,0.382 -0.19,0.802 -0.305,1.202c-0.153,0.516 -0.305,1.049 -0.458,1.565c-0.19,0.706 -0.419,1.393 -0.61,2.079c-0.153,0.572 -0.306,1.164 -0.439,1.736c-0.172,0.744 -0.306,1.469 -0.477,2.213c-0.076,0.324 -0.172,0.649 -0.267,0.973c-0.057,0.153 -0.134,0.382 -0.362,0.382c-0.229,0 -0.535,-0.058 -0.63,-0.21c-0.191,-0.305 -0.535,-0.458 -0.859,-0.648c-0.114,-0.058 -0.229,-0.249 -0.19,-0.382c0.19,-0.687 -0.095,-1.26 -0.153,-1.889c-0.057,-0.515 -0.172,-1.03 -0.267,-1.564c-0.038,-0.248 0.095,-0.42 0.42,-0.611c0.057,-0.019 0.095,-0.076 0.133,-0.095c-0.076,0 -0.152,-0.038 -0.209,0c-0.344,0.152 -0.421,0.172 -0.459,-0.134c-0.076,-0.324 -0.057,-0.687 -0.057,-1.049c0,-0.038 0.114,-0.171 0.191,-0.171c0.325,-0.058 0.191,-0.23 0.096,-0.268c-0.153,-0.038 -0.134,-0.267 -0.401,-0.21c-0.057,0 -0.115,-0.19 -0.191,-0.286l-0.115,-0.172c-0.056,0.058 -0.114,0.115 -0.172,0.191c-0.4,0.668 -0.553,1.374 -0.744,2.061c-0.095,0.324 -0.305,0.648 -0.381,0.992c-0.114,0.458 -0.401,0.896 -0.591,1.335c-0.02,0.076 -0.077,0.134 -0.077,0.191c-0.095,0.668 -0.457,1.298 -0.667,1.965c-0.019,0.038 -0.039,0.096 -0.058,0.153c-0.152,0.267 -0.305,0.343 -0.591,0.248c-0.229,-0.058 -0.458,-0.115 -0.572,-0.344c-0.077,-0.153 -0.287,-0.229 -0.44,-0.343c-0.171,-0.134 -0.19,-0.305 -0.113,-0.534c0.286,-0.706 0.572,-1.412 0.8,-2.118c0.229,-0.687 0.402,-1.374 0.611,-2.06c0.038,-0.192 0.153,-0.363 0.21,-0.535c0.21,-0.744 0.4,-1.507 0.61,-2.27c0.115,-0.458 0.325,-0.648 0.859,-0.801c0.114,-0.02 0.267,-0.152 0.324,-0.267c0.21,-0.382 0.267,-0.764 0.21,-1.126c-0.057,-0.325 0,-0.401 0.382,-0.534c0.858,-0.305 1.641,0.038 1.755,0.763c0.133,0.916 0.344,1.812 0.496,2.709c0.115,0.63 0.191,1.26 0.305,1.869c0.038,0.249 0.115,0.459 0.172,0.687c0,0.02 0,0.039 0.019,0.058c0.019,-0.038 0.057,-0.058 0.076,-0.096c0.134,-0.439 0.286,-0.877 0.42,-1.316c0.419,-1.469 0.916,-2.938 1.298,-4.14c0.132,-0.42 0.324,-0.591 0.419,-0.877c0.019,-0.057 0.038,-0.096 0.057,-0.134c0.02,-0.038 0.058,-0.057 0.077,-0.077c0.019,0.02 0.057,0.039 0.038,0.077c-0.038,0.134 -0.076,0.267 -0.115,0.4c-0.152,0.439 -0.42,0.802 -0.629,1.527c-0.172,0.667 -0.324,1.317 -0.534,1.965c-0.21,0.706 -0.458,1.412 -0.668,2.099c-0.134,0.457 -0.229,0.897 -0.324,1.354c0,0.038 0.037,0.096 0.056,0.133c0.057,-0.037 0.173,-0.076 0.191,-0.133c0.095,-0.267 0.172,-0.534 0.249,-0.782c0.133,-0.42 0.247,-0.821 0.381,-1.221c0.286,-0.935 0.591,-1.851 0.858,-2.785c0.249,-0.897 0.44,-1.546 0.649,-2.29c0.019,-0.095 0.019,0.095 0.057,0.038c0.153,-0.305 0.286,-0.592 0.21,-0.896c0,-0.019 0.038,-0.058 0.057,-0.077c0.115,-0.152 0.229,-0.305 0.153,-0.458c-0.019,-0.038 0.02,-0.076 0.039,-0.114c0.133,-0.362 0.266,-0.706 0.4,-1.068c0.095,-0.229 0.229,-0.458 0.324,-0.706c0.057,-0.115 0.057,-0.248 0.057,-0.382c0.019,-0.019 -0.018,-0.019 -0.018,-0.038c-0.019,0.019 -0.058,0.019 -0.058,0.038c-0.076,0.134 -0.134,0.267 -0.191,0.401l0.02,0.076l-0.02,0c-0.057,0.095 -0.114,0.191 -0.19,0.287c-0.019,0.037 -0.058,0.076 -0.096,0.114c0.019,-0.038 0,-0.077 0.019,-0.114c0.096,-0.249 0.21,-0.516 0.324,-0.783c0.058,-0.152 0.077,-0.306 0.134,-0.458c0.039,-0.095 0.134,-0.152 0.305,-0.152c0.039,0.019 0.096,0 0.134,0c0.477,-0.096 0.801,0 1.03,0.228c0.095,0.096 0.076,0.191 0.019,0.306c-0.21,0.4 -0.42,0.801 -0.496,1.202" style="fill:#fff;fill-rule:nonzero;"/><path d="M11.92,15.557c-0.161,0.209 -0.37,0.37 -0.628,0.451c-0.015,0.016 -0.064,0.016 -0.064,0.016c-0.193,-0.129 -0.499,-0.129 -0.563,-0.371c-0.016,-0.112 -0.08,-0.209 -0.113,-0.321c-0.016,-0.097 -0.032,-0.209 -0.032,-0.29c0.08,-0.161 0.145,-0.274 0.193,-0.387c0.065,-0.192 0.129,-0.369 0.194,-0.563c0.031,-0.145 0.096,-0.176 0.241,-0.145c0.322,0.113 0.644,0.259 0.707,0.612c0.033,0.193 0.113,0.354 0.178,0.547c0.048,0.145 0,0.29 -0.113,0.451" style="fill:#33d8bf;fill-rule:nonzero;"/></g></g></svg>