<?xml version="1.0" encoding="utf-8"?>
<!-- Generator: Adobe Illustrator 21.1.0, SVG Export Plug-In . SVG Version: 6.00 Build 0)  -->
<svg version="1.1" id="Layer_1" xmlns="http://www.w3.org/2000/svg" xmlns:xlink="http://www.w3.org/1999/xlink" x="0px" y="0px"
	 viewBox="0 0 311.2 112" style="enable-background:new 0 0 311.2 112;" xml:space="preserve">
<style type="text/css">
	.st0{fill:#FF931E;}
	.st1{fill:#40D9A7;}
</style>
<path class="st0" d="M58.8,9c-0.1,0.9-0.8,1.6-1.8,2.2c-0.8,0.5-1,1.3-1.3,1.9c-0.3,0.4-0.2,0.9-0.3,1.4c-0.1,0.2-0.2,0.6-0.5,0.8
	c-0.5,0.5-1.5,0.9-0.4,1.3c0.2,0.1-0.1,0.6-0.2,0.9c-0.7,2,0.1,2.4-0.8,5.3c-0.4,1.1-0.9,2.1-1.3,3.2c-0.6,1.4-0.8,2.1-0.9,3.9
	c-0.2,1.9-1,4.1-1.6,6.1c-0.8,2.6-1.6,5.3-2.3,8c-1,3.6-2.1,7.1-3.1,10.6c-0.8,2.9-1.6,5.9-2.2,8.8c-0.9,3.8-1.6,7.5-2.4,11.3
	c-0.4,1.7-0.9,3.3-1.4,5c-0.3,0.8-0.7,1.9-1.8,1.9c-1.2,0-2.7-0.3-3.2-1.1c-1-1.6-2.7-2.3-4.4-3.3c-0.6-0.3-1.2-1.3-1-1.9
	c1-3.5-0.5-6.4-0.8-9.6c-0.3-2.6-0.9-5.2-1.4-8c-0.2-1.3,0.5-2.1,2.1-3.1c0.3-0.1,0.5-0.4,0.7-0.5c-0.4,0-0.8-0.2-1.1,0
	c-1.7,0.8-2.1,0.9-2.3-0.7C24.9,51.7,25,49.9,25,48c0-0.2,0.6-0.9,1-0.9c1.7-0.3,1-1.2,0.5-1.4c-0.8-0.2-0.7-1.4-2-1.1
	c-0.3,0-0.6-1-1-1.5c-0.2-0.3-0.4-0.6-0.6-0.9c-0.3,0.3-0.6,0.6-0.9,1c-2,3.4-2.8,7-3.8,10.5c-0.5,1.6-1.6,3.3-1.9,5
	c-0.6,2.3-2,4.6-3,6.8c-0.1,0.4-0.4,0.7-0.4,1c-0.5,3.4-2.3,6.6-3.4,10c-0.1,0.2-0.2,0.5-0.3,0.8c-0.8,1.4-1.6,1.7-3,1.3
	C5,78.4,3.8,78.1,3.2,77c-0.4-0.8-1.5-1.2-2.2-1.7c-0.9-0.7-1-1.6-0.6-2.7c1.5-3.6,2.9-7.2,4.1-10.8c1.2-3.5,2-7,3.1-10.5
	c0.2-1,0.8-1.8,1.1-2.7c1.1-3.8,2-7.7,3.1-11.6c0.6-2.3,1.7-3.3,4.4-4.1c0.6-0.1,1.4-0.8,1.7-1.4c1.1-1.9,1.4-3.9,1.1-5.7
	c-0.3-1.7,0-2,1.9-2.7c4.4-1.6,8.3,0.2,8.9,3.9c0.7,4.7,1.7,9.2,2.5,13.8c0.6,3.2,1,6.4,1.6,9.5c0.2,1.3,0.6,2.3,0.9,3.5
	c0,0.1,0,0.2,0.1,0.3c0.1-0.2,0.3-0.3,0.4-0.5c0.7-2.2,1.5-4.5,2.1-6.7c2.1-7.5,4.7-14.9,6.6-21.1c0.7-2.1,1.7-3,2.1-4.5
	c0.1-0.3,0.2-0.5,0.3-0.7c0.1-0.2,0.3-0.3,0.4-0.4c0.1,0.1,0.3,0.2,0.2,0.4c-0.2,0.7-0.4,1.4-0.6,2c-0.8,2.2-2.1,4.1-3.2,7.8
	c-0.9,3.4-1.7,6.7-2.7,10c-1.1,3.6-2.3,7.2-3.4,10.7c-0.7,2.3-1.2,4.6-1.7,6.9c0,0.2,0.2,0.5,0.3,0.7c0.3-0.2,0.9-0.4,1-0.7
	c0.5-1.4,0.9-2.7,1.3-4c0.7-2.1,1.3-4.2,1.9-6.2c1.5-4.8,3-9.4,4.4-14.2c1.3-4.6,2.2-7.9,3.3-11.6c0.1-0.5,0.1,0.5,0.3,0.2
	c0.8-1.6,1.5-3,1.1-4.6c0-0.1,0.2-0.3,0.3-0.4c0.6-0.8,1.2-1.6,0.8-2.3c-0.1-0.2,0.1-0.4,0.2-0.6c0.7-1.8,1.4-3.6,2-5.4
	c0.5-1.2,1.2-2.3,1.7-3.6c0.3-0.6,0.3-1.3,0.3-1.9C54.2,3.3,54,3.3,54,3.2c-0.1,0.1-0.3,0.1-0.3,0.2c-0.4,0.7-0.7,1.4-1,2l0.1,0.4
	h-0.1c-0.3,0.5-0.6,1-1,1.5c-0.1,0.2-0.3,0.4-0.5,0.6c0.1-0.2,0-0.4,0.1-0.6c0.5-1.3,1.1-2.6,1.7-4c0.3-0.8,0.4-1.6,0.7-2.3
	c0.2-0.5,0.7-0.8,1.6-0.8c0.2,0.1,0.5,0,0.7,0c2.4-0.5,4.1,0,5.2,1.2c0.5,0.5,0.4,1,0.1,1.6C60.2,4.9,59.1,7,58.8,9z M22.2,35.2
	L22.2,35.2c-0.1-0.1-0.1-0.1-0.2-0.1l-0.1,0.2L22.2,35.2z M24.2,38.7c-0.5,0.3-1,0.7-1.6,1.1c0.1,0,0.3,0.2,0.4,0.2
	c0.6-0.2,1.2-0.5,2-0.9C24.6,38.8,24.3,38.6,24.2,38.7z M27.8,50c-0.1,0-0.2,0-0.3,0c-0.2,0.1-0.3,0.2-0.4,0.3l0.3,0.1L27.8,50z
	 M28.8,56.4L28.8,56.4c-0.1-0.1-0.2-0.1-0.3,0v0.1L28.8,56.4z M29.1,59.4l-0.4,0.3l0.2,0.3c0.1-0.2,0.3-0.3,0.4-0.4
	C29.2,59.6,29.1,59.5,29.1,59.4z M30.2,65.1c-0.2,0.1-0.4,0.4-0.6,0.6c0.2,0.2,0.4,0.4,0.6,0.4c0.2,0,0.5-0.3,0.9-0.6
	C30.7,65.3,30.4,65.1,30.2,65.1z M42.4,49.4c-0.1-0.1-0.2-0.2-0.2-0.2c-0.2,0.1-0.3,0.2-0.4,0.4l0.2,0.2L42.4,49.4z M48.8,28.7
	c-0.5-0.2-0.8-1.1-1.7-0.3c-0.5,0.5-0.6,0.9-1.2,1.9c0.7-0.1,1.1-0.1,1.4-0.3c0.5-0.2,0.6-0.4,1.1-0.6c0.3-0.1,0.7,0,1,0
	C49.1,29.2,49.1,28.8,48.8,28.7z M47,19.6c-0.1-0.1-0.2-0.1-0.2-0.2c0.1-0.4,0.3-0.8,0.5-1.2c0-0.1,0.1-0.1,0.2-0.1
	c0,0.4-0.1,0.9-0.2,1.3C47.3,19.4,47.2,19.5,47,19.6z M48.1,16.1L48.1,16.1c0-0.2,0.1-0.2,0.2-0.2c0,0,0.1,0.1,0,0.1
	C48.3,16,48.2,16.1,48.1,16.1z M48.9,14.8c-0.1,0.1-0.3,0.2-0.4,0.3l-0.2-0.3c0.4-0.7,0.7-1.4,1.1-2.1c0,0,0.1-0.1,0.2-0.1
	c0,0,0.1,0.1,0.1,0.2C49.3,13.5,49.1,14.2,48.9,14.8z M49,12.3L49,12.3L49,12.3z M50.2,24.3c-0.1,0-0.2-0.1-0.3-0.1l-0.2,0.1
	c0,0.1,0.2,0.2,0.3,0.3L50.2,24.3z M49.9,21.6C49.8,21.6,49.8,21.7,49.9,21.6C49.9,21.7,49.9,21.7,49.9,21.6l0.2,0.1
	C50,21.6,49.9,21.6,49.9,21.6z M50.5,10.1l-0.4,0.4v0.1c0,0.1,0.1,0.1,0,0.2c0,0.1-0.1,0.2-0.2,0.3c0-0.1,0-0.2,0-0.2
	c0.1-0.1,0.1-0.2,0.2-0.3v-0.1c0.2-0.4,0.2-0.4,0.2-0.4H50.5z M51,8.9C50.9,8.9,50.9,8.8,51,8.9l0.1-0.2C51.1,8.8,51.1,8.8,51,8.9
	L51,8.9z M52.4,14.7c0,0.1-0.2,0.2-0.2,0.2c0.1,0.1,0.2,0.2,0.4,0.4c0.1-0.2,0.3-0.3,0.2-0.4S52.6,14.7,52.4,14.7z M53.6,11.4
	c-0.2,0.1-0.4,0.1-0.6,0.3c0.2,0,0.3,0.1,0.4,0.1s0.3-0.1,0.3-0.2L53.6,11.4z M55.2,8.1c-0.1,0-0.2,0.1-0.3,0.2
	c0.1,0,0.2,0.1,0.3,0.2c0.1,0,0.3-0.1,0.7-0.3C55.5,8.1,55.3,8.1,55.2,8.1z M55.8,5.5l-0.7,0.8l0.4,0.4c0.2-0.3,0.5-0.5,0.6-0.8
	C56.2,5.8,56,5.7,55.8,5.5z"/>
<path class="st0" d="M80.6,67.1C79.7,68,79.2,69,78.7,70c-0.2,0.5-0.6,0.9-1.1,1.1c-1.3,0.4-2.3,1.5-3.5,2.2
	c-0.2,0.2-0.5,0.3-0.6,0.6c-0.4,0.9-1.1,1.2-2,1.5c-0.6,0.2-1.1,0.3-1.2,1.1c0,0.2-0.2,0.3-0.5,0.2c-0.2-0.2-0.6-0.1-0.8,0.2
	c-0.8,0.7-1.6,0.8-2.6,0.8c-0.7,0-1.5,0.2-2.1,0.2c-1.2,0-2.5,0-3.5-0.3c-0.6-0.2-1-0.6-1.7-0.3c-0.2,0.1-0.6-0.1-0.8-0.2
	c-1.3-0.8-2.7-1.6-3.9-2.4c-1.4-0.9-2.5-2-3.1-3.6c-0.6-1.6-0.7-3.1-0.6-4.8c0.1-1-0.2-1.9,0.2-2.9c0.2-0.4,0.3-0.7,0.7-0.5
	c0.5,0.2,0.8-0.2,1.1-0.3c0.2-0.1,0.4-0.4,0.4-0.7c0.1-0.4-0.2-0.5-0.5-0.5c-0.4,0.5-1,0.8-1.2,0.6c-0.1-0.1-0.2-0.2-0.2-0.4
	c0.2-1.1,0.5-2.1,0.7-3.2c0.1-0.3,0.2-0.6,0.2-0.8c0.2-0.5,0.3-1,0.4-1.5c0.1-0.5,0.1-1,0.2-1.4c0.6-1.7,1.1-3.4,1.8-5.1
	c0.2-0.4,0.3-0.8,0.6-1.2c1-1.4,1.6-2.9,2-4.6c0.1-0.2,0.2-0.5,0.3-0.7c1.1-2.1,2.2-4.3,3.3-6.3c0.2-0.5,0.5-1,0.7-1.5
	c0.7-1.6,1.9-2.9,2.9-4.3c0.7-0.9,1.7-1.5,2.5-2.2c0.9,0,1.8-0.6,2.7-0.4c1.7,0.3,3.1,1.1,4.3,2.2c0.2,0.2,0.4,0.7,0.4,1.1
	c-0.2,1.3,0.8,1.6,1.6,2.2c0.2,0.1,0.4,0.1,0.6,0c0.9-0.2,1.8-0.4,2.7-0.7c1.4-0.3,2.7-0.8,4.1-1.1c0.9-0.2,1.9-0.1,2.8-0.1
	c0.7,0.1,0.8,0.7,0.5,1.3c-0.2,0.3-0.6,0.7-0.8,1.1c-0.8,1.1-2.3,1.6-2.9,2.9c-0.8,0.6-1.8,1-2.7,1.1c-0.7,0.2-1.5,0.4-2.2,0.7
	c-0.9,0.4-2,0.7-2.9,0.8c-0.6,0.2-1.1-0.2-1.7-0.3c-0.7-0.2-0.7-0.2-1.3,0.6c-0.1,0.2-0.3,0.3-0.4,0.5c-0.3,1.1-1.1,2.1-1.6,3.2
	c-0.7,1.3-1.5,2.6-2.1,3.9c-0.2,0.2-0.2,0.4-0.2,0.6c-0.2,0.6-0.3,1.1-0.7,1.5c-0.7,0.7-1,1.6-1.1,2.6c-0.1,0.7,0,0.7,0.6,0.6
	c1.8-0.5,3.7-0.9,5.5-1.5c1.2-0.3,2.5-0.9,3.7-1.3c0.8-0.3,1.6-0.6,2.4-0.8c0.2-0.1,0.5-0.2,0.7-0.3c1-0.8,2.1-0.9,3.2-1.3
	c1.2-0.4,1.9,0.4,1.4,1.6c-0.3,0.9-0.7,1.8-1.1,2.7c-0.2,0.5-0.7,0.8-1.1,1.1c-0.9,0.4-1.7,0.8-2.6,1.1c-0.8,0.3-1.6,0.5-2.4,1.1
	c-1.1,0.2-2.2,0.9-3.4,0.7c-1.6-0.3-3.2,0.3-4.8,0.9c-0.5,0.2-0.9,0.2-1.3,0.2c-0.9,0-1.8,0.2-2.7,0.4c-0.2,0.1-0.4,0.3-0.5,0.5
	c-0.3,0.8-0.6,1.6-0.9,2.4c-0.1,0.3-0.1,0.6-0.2,0.8c-0.7,1-0.7,2-0.9,3c-0.1,0.6-0.2,1.2-0.5,1.8c-0.7,1.9-0.8,3.7-0.7,5.4
	c0.1,0.3,0.2,0.6,0.2,0.9c0.2,1.2,0.6,1.5,1.9,1.1c1.1-0.2,2.2-0.7,3.3-1.1c1.5-0.6,3-1.1,4.4-1.8c2.6-1.2,5.1-2.5,7.6-3.9
	c1.2-0.7,2.5-1.4,3.8-1.8c0.2-0.1,0.4,0,0.4,0.1c0.1,0.2,0.1,0.4,0,0.5C81.3,66.2,80.9,66.7,80.6,67.1z M52.6,65.9
	c-0.2-0.1-0.4-0.2-0.6-0.2c-0.2,0-0.4,0-0.6,0.2C51.3,66,51,66.2,51,66.3c0,0.2,0.2,0.3,0.2,0.5c0.1,0,0.2,0,0.3-0.1
	c0.4-0.1,0.6,0,0.5,0.4c0,0.2,0.2,0.3,0.4,0.3c0.2-0.1,0.5-0.2,0.7-0.2c0.1-0.3,0.2-0.7,0.2-1C53.4,65.8,52.8,66,52.6,65.9z
	 M60.5,43.5c-0.1,0-0.2-0.2-0.2-0.2h-0.3c-0.2,0.6-0.6,1.1-0.8,1.7c-0.2,0.3-0.3,0.6-0.7,0.7c-0.5,0.2-0.7,0.5-0.2,0.9
	c0.2,0.2,0.1,0.4-0.2,0.5c-0.7,0.2-1.1,0.8-1.7,1.3c-0.2,0.2-0.3,0.5-0.3,0.8c-0.2,1.1-0.2,2.1-0.2,3.2c0,0.3-0.2,0.4-0.6,0.4
	c0,0.3,0.1,0.7,0,0.9c0,0.2-0.1,0.3-0.1,0.4c-0.2,0-0.3,0-0.4-0.1c-0.2-0.1-0.2-0.2-0.3-0.2c-0.1,0.2-0.2,0.4-0.2,0.6
	c0,0.5,0,1,0,1.5c0,0.5-0.5,1.1,0,1.4c-0.2,0.3-0.5,0.6-0.7,0.9c-0.2,0.7-0.6,1.2-1.1,1.8c-0.7,0.7-0.5,1,0.3,1.4
	c0.6-0.2,1-0.5,1.1-1.2c0.2-0.7,0.6-1.4,1.3-1.9c0.2-0.2,0.7-0.2,0.8-0.5c0.1-0.2-0.2-0.5-0.2-0.7c0-0.4,0-0.7,0.2-1.1
	c0.5-0.8,0.7-1.6,0.7-2.5c0-0.8,0.3-1.3,1.1-1.7c0.7-0.3,1-0.8,1.1-1.5c0.1-0.4,0.2-0.9,0.2-1.3c0-0.2,0.1-0.5,0.2-0.7
	c0.5-1.1,0.9-2.4,1.7-3.4c0.2-0.3,0.4-0.7,0.3-0.9C61.1,43.7,60.7,43.6,60.5,43.5z M53.2,67.3c-0.2,0.2-0.3,0.5-0.4,0.7
	c-0.1,0.1,0,0.2,0.1,0.2c0.1-0.1,0.2-0.1,0.2-0.2C53.2,67.9,53.2,67.6,53.2,67.3z M53.2,69.9l-0.1-0.3l-0.2,0.2l0.1,0.2L53.2,69.9z
	 M54.9,52.6c-0.2-0.1-0.4,0-0.6,0.1c-0.1,0-0.1,0.2-0.2,0.2c0.2,0.1,0.4,0.2,0.6,0.1c0.2,0,0.2-0.1,0.4-0.2
	C55,52.7,55,52.6,54.9,52.6z M60.5,43c-0.1,0.1-0.2,0.1-0.2,0.2c0.1,0,0.2,0,0.2,0c0.1,0,0.2-0.2,0.2-0.2C60.6,43,60.5,43,60.5,43z
	 M69.9,75.7L69.9,75.7L69.9,75.7z"/>
<path class="st0" d="M116,46.4c-0.1,0.1-0.2,0.2-0.3,0.2c-0.5,0.3-1.1,0.6-1.5,1.1c-0.1,0.1-0.2,0.2-0.4,0.2l-0.1,0.1l0.1,0.1
	c0.1,0,0.2,0,0.3,0c0.2,0,0.6-0.1,0.5,0.2c0,0.2-0.4,0.1-0.6,0.2c-0.7,0.5-1.4,0.4-2,0.6c-0.7,0.1-1.3,0.2-2,0.3
	c-0.2,0-0.2,0-0.4,0.1c-0.8,0.6-1.6,0.5-2.4,0.6c-1.1,0.1-2.2,0.1-3.4,0.1c-0.4,0-0.9,0.1-1.3,0.1c-0.6,0-1.1-0.1-1.6-0.2
	c-0.4,0-0.8-0.1-1.2-0.1c-0.6,0-1.1,0.4-1.1,1c-0.1,0.2-0.2,0.5-0.2,0.7c-0.1,0.2-0.2,0.3-0.2,0.5c-0.2,0.7-0.5,1.6-0.7,2.4
	c0,0.1-0.1,0.2-0.2,0.3c-0.3,0.4-0.4,0.9-0.3,1.3c0.1,0.2,0,0.3-0.2,0.6c-0.4,0.5-0.7,1-1.1,1.5c-0.1,0.2-0.1,0.3-0.1,0.5
	c0,0.2,0.2,0.2,0.2,0.4c0.1,0.2,0.1,0.4-0.1,0.7c-0.2,0.2-0.2,0.3-0.3,0.5c-0.2,0.5-0.4,1.1-0.5,1.6c-0.2,0.6-0.2,1.1-0.2,1.6
	c0,0.2-0.1,0.6-0.2,0.8c-0.3,0.6-0.5,1.2-0.8,1.8c-0.2,0.4-0.3,0.8-0.4,1.2c-0.1,0.7-0.1,1.2-0.2,1.8c0,0.3,0,0.6,0.3,0.7
	c0.2,0,0.2,0.1,0.3,0.2c0,0,0,0.2-0.1,0.2c-0.1,0.1-0.2,0.1-0.2,0.1c-0.2,0.1-0.2,0.2-0.3,0.3c-0.2,0.2-0.3,0.6-0.5,0.8
	c-0.1,0.2-0.2,0.2-0.1,0.3c0.1,0.2-0.2,0.5-0.3,0.7C92.1,72.6,91.9,73,92,73c0.2,0.3-0.2,0.8,0.1,1.1c-0.2,0.5-0.4,1-0.7,1.5
	s-0.3,0.9-0.3,1.3c0.1,0.3,0,0.7-0.2,1c-0.2,0.5-0.2,0.9,0.2,1.1c0.1,0,0.1,0.1,0.2,0.2c0,0.1,0.1,0.2,0.1,0.3
	c0,0.2-0.2,0.2-0.3,0.3c-0.4,0.4-0.9,0.6-1.4,0.7c-0.4,0.2-0.7,0.2-1.1,0c-0.4-0.2-0.8-0.4-1.2-0.7c-0.2-0.1-0.4-0.1-0.7,0
	c-0.6,0.2-1.1,0.1-1.4-0.2c-0.2-0.1-0.2-0.2-0.3-0.2c-0.2-0.1-0.4-0.2-0.7,0c-0.5,0.2-0.7,0-1.1-0.2c-0.4-0.2-0.5-0.7-0.7-1.1
	c-0.2-0.9-0.2-2-0.2-2.9c0-0.7,0.2-1.6,0.2-2.4c0.2-1,0.3-2,0.6-3c0.2-0.8,0.2-1.6,0.6-2.5c0.3-0.8,0.5-1.6,0.7-2.5
	c0.1-0.1,0.2-0.2,0.2-0.4c0.1-0.2,0.4-0.3,0.7-0.3c0.2,0.1,0.2,0.2,0.1,0.4c-0.2,0.2-0.2,0.4-0.1,0.5c0.2,0.2-0.1,0.3-0.2,0.6
	c-0.2,0.6-0.5,1.2-0.3,1.8c0.1,0.2,0.1,0.3-0.2,0.4c-0.1,0-0.2,0.2-0.2,0.2c0.1,0.4-0.4,0.8-0.2,1.2c0.1,0.1,0,0.2-0.1,0.2
	c-0.2,0.3-0.2,0.7-0.2,0.9c0,0.1,0,0.2-0.1,0.3c-0.2,0.3-0.2,0.6-0.2,0.8c-0.1,0.5-0.1,0.9-0.1,1.3c0,0.1-0.1,0.2-0.1,0.2
	c-0.3,0.6-0.3,0.8-0.2,1.1c0.1,0.2,0.1,0.3,0.2,0.4c0.2,0.2,0.2,0.3,0,0.6c-0.2,0.2-0.1,0.5,0.3,0.7c0.2-0.2,0.2-0.5,0.5-0.7
	c0.2-0.2,0.3-0.5,0.4-0.7c0-0.1,0-0.2,0-0.2c0.5-0.5,0.3-0.7,0-0.9c-0.1-0.1-0.1-0.2,0.2-0.3c0.1-0.1,0.2-0.2,0.2-0.3
	c-0.1-0.5,0.2-1.1,0.3-1.6c0.1-0.2,0.2-0.4,0.2-0.6c0.1-0.2-0.1-0.4,0-0.7c0.1-0.2,0.3-0.5,0.5-0.7c0.1-0.2,0.2-0.6,0.2-0.8
	c0.2-0.5,0.3-0.6,0.8-0.7c0.3,0,0.7-0.1,1-0.2c0.3-0.2,0.5-0.2,0.7,0c0.1,0,0.2-0.1,0.2-0.1c0-0.1,0.1-0.2,0.1-0.2
	c-0.2-0.3-0.7-0.6-1.1-0.4c-0.3,0.2-0.7,0.3-1,0.5c-0.3,0.2-0.5,0.1-0.7,0c-0.2-0.2-0.2-0.3,0.1-0.7c0.1-0.1,0.2-0.2,0.2-0.4
	c0.2-0.3,0.2-0.3,0-0.7c-0.2-0.2-0.2-0.2,0.2-0.3c0.2-0.2,0.3-0.2,0.3-0.5c0.1-0.2,0.2-0.5,0.2-0.7c0.1-0.3,0.2-0.7,0.4-1
	c0.2-0.2,0.2-0.4,0-0.7c-0.2-0.3,0-0.8,0.3-1.2c0.2-0.2,0.2-0.2,0-0.4c-0.1-0.1,0.1-0.2,0.2-0.3c0.2-0.2,0.5-0.6,0.5-1
	c0,0,0,0,0-0.1c0.2-0.3,0.6-0.6,0.6-0.9s-0.1-0.7-0.2-1c0-0.1,0-0.2,0-0.4c0-0.1,0.1-0.2,0.1-0.2c0.4-0.2,0.3-0.3,0.3-0.7
	c-0.1-0.4,0.2-0.7,0.7-0.8c0.1-0.1,0.2-0.2,0.3-0.2c0.2-0.1,0.2,0,0.2,0.2c-0.1,0.3-0.1,0.4,0.2,0.4c0.2-0.1,0.4-0.1,0.6-0.2
	c0.1-0.1,0.3-0.2,0.4-0.4c0.1-0.2-0.2-0.2-0.2-0.2c-0.2-0.2-0.4-0.3-0.7-0.2c-0.5,0.1-0.6-0.1-0.6-0.4c0-0.2,0-0.4-0.1-0.7
	c0-0.2,0.1-0.4,0.4-0.5c0.1-0.1,0.2-0.1,0.2-0.1c0.2,0,0.3-0.2,0.2-0.2c-0.1-0.2-0.1-0.2,0.2-0.4c0.2-0.2,0.2-0.2,0-0.3
	c-0.1,0-0.2,0-0.2-0.1c-0.2-0.1-0.2-0.2-0.2-0.4c0.2-0.4,0.4-0.7,0.7-1.1c0.6-0.4,0.7-0.9,0.4-1.3c-0.2-0.2-0.3-0.4-0.1-0.6
	c0.4-0.4,0.2-0.6,0-0.8c0-0.1,0-0.2,0-0.2c0.2-0.4,0.4-0.8,0.7-1.2c0.5-0.2,0.4-0.7,0.7-1c-0.1-0.6,0.2-1.1,0.6-1.6
	c0.2-0.2,0.2-0.3,0-0.5c-0.2-0.2-0.2-0.6,0-0.9c0.2-0.4,0.5-0.8,0.7-1.2c0.2-0.2,0.1-0.4-0.2-0.4c-0.3-0.1-0.7-0.1-1.1-0.2
	c-0.1,0-0.3,0.2-0.3,0.3c0,0.1,0,0.2,0.1,0.3c0.1,0.2,0,0.3-0.2,0.4c-0.2,0.1-0.3,0.2-0.3,0.3c0,0.2-0.1,0.6-0.1,0.8
	c0,0.4-0.1,0.9-0.5,1.4c-0.2,0.2-0.3,0.3-0.2,0.5c0.1,0.2,0,0.3,0,0.4c-0.1,0.5-0.1,0.8,0.4,0.9c0.1,0,0.1,0.1,0.1,0.1
	c-0.1,0.1-0.2,0.2-0.2,0.2c0,0.1-0.1,0.1-0.2,0.1c-0.2,0.1-0.4,0-0.6,0.2c-0.1,0.2,0,0.3,0,0.5c0,0.2-0.2,0.3-0.5,0.4
	c-0.3,0.2-0.5,0.1-0.4-0.2c0.1-0.4,0.2-0.8,0.2-1.2c0.2-0.5,0.4-1,0.3-1.5c0-0.1,0-0.2,0.1-0.3c0.2-0.5,0.4-1,0.7-1.5
	c0.2-0.4,0.3-0.8,0.3-1.2c0-0.2,0.1-0.4,0.3-0.7c0.2-0.1,0.2-0.2,0.2-0.3c-0.1-0.7,0.2-1.6,0.6-2.3c0.2-0.7,0.5-1.3,0.8-1.9
	c0-0.2,0-0.3,0.1-0.5c0-0.2,0.1-0.4,0.1-0.6c0.6-1.1-0.2,3.6,0.2,2.5l0.1-0.3c0.2-0.6,0.3-1.1,0.5-1.6c0-0.2,0.1-0.4,0.2-0.6
	c0.2-0.3,0.4-0.7,0.4-1c0.2-1.1,0.8-2.1,1.1-3.3c0.2-0.3,0.4-0.7,0.4-1.1c0-0.5,0.2-0.9,0.4-1.3c0-0.2,0.1-0.3,0.2-0.5
	c0.4-0.6,0.6-1.2,0.6-1.8c0.1-0.2,0.2-0.4,0.3-0.6c0.4-0.6,0.8-1.1,1.4-1.5c0.5-0.3,0.9-0.6,1.5-0.7c0.3,0,0.7-0.1,1.1-0.2
	c0.4-0.2,0.6-0.2,0.9,0c0.5,0.2,1.1,0.4,1.4,0.8c0.1,0.2,0.3,0.2,0.6,0.2c0.6,0,1.2-0.1,1.8-0.1c0.2,0,0.3-0.1,0.4,0
	c0.6,0.1,1.1,0.2,1.7,0.4c0.2,0.1,0.4,0.2,0.7,0c0.2-0.2,0.4-0.1,0.7-0.1c0.3,0,0.7,0,0.9,0.1c0.3,0,0.7,0.1,0.9,0.2
	c0.1,0,0.2,0.1,0.2,0c0.5-0.1,0.8,0.2,1.2,0.1c1.5-0.1,2.5,0.6,3.8,0.9c0.3,0.1,0.7,0.2,0.9,0.6c0.2,0.3,0.4,0.5,0.6,0.7
	c0.2,0.2,0.2,0.3,0.2,0.6c0.1,0.6,0,0.6-0.7,1.1c-0.4,0.2-0.7,0.4-1.1,0.2c-0.2-0.1-0.5,0-0.7,0.1c-0.2,0.1-0.3,0.2-0.4,0.4
	c-0.3,0.5-0.7,0.9-1.2,1.3c-0.1,0.2-0.3,0.3-0.3,0.5c-0.3,0.6-0.9,1-1.3,1.5c-0.2,0.2-0.3,0.2-0.4-0.1c-0.1-0.5-0.1-1,0.2-1.6
	c0.2-0.3,0.2-0.7,0.2-1c0-0.2,0.2-0.3,0.2-0.5c0.1-0.2,0.2-0.4,0.1-0.5c-0.2-0.5-0.6-0.9-1.1-0.9c-0.8,0-1.6-0.2-2.3-0.2
	c-0.5,0-1.1,0-1.6-0.1c-0.2,0-0.3,0.2-0.3,0.3c-0.1,0.3-0.2,0.6-0.2,0.8c-0.1,0.2-0.2,0.6-0.5,0.7c-0.3,0.3-0.6,0.7-0.7,1.1
	c-0.2,0.5-0.3,1-0.7,1.5c-0.1,0.2-0.2,0.3-0.2,0.4c-0.1,0.7-0.4,1.2-0.7,1.8c-0.1,0.2-0.3,0.5-0.4,0.7c-0.2,0.9-0.7,1.7-1,2.5
	c-0.1,0.3-0.2,0.6-0.4,0.8c0,0.1,0,0.1-0.1,0.1c0,0.3,0,0.4,0,0.3c0-0.1,0-0.2,0-0.3c0.2-1.1,0.7-4.5,0.4-4.2
	c-0.1,0.1-0.2,0.3-0.2,0.4c0.1,0.5-0.2,1-0.3,1.5c-0.2,0.4-0.2,0.9-0.2,1.3c0,0.3-0.1,0.7-0.3,1.1c-0.3,0.5-0.7,0.9-0.7,1.4
	c0,0.1-0.1,0.2-0.2,0.2c-0.2,0.2-0.2,0.4-0.2,0.6c-0.2,1-0.6,2-0.9,3c-0.2,0.7-0.5,1.3-0.8,2c-0.1,0.2,0,0.3,0.2,0.4
	c0.2,0.2,0.6,0.2,1,0.1c0.5-0.2,0.8-0.1,1.2,0c0.3,0,0.7,0,1,0c0.5-0.1,1-0.1,1.5-0.2c0.9,0,1.9-0.1,2.9-0.4
	c0.2-0.1,0.4-0.2,0.5-0.1c0.6,0.2,1.3-0.1,2-0.2c0.5-0.1,1-0.2,1.5-0.4c0.2-0.1,0.4-0.2,0.7,0c0.2,0.1,0.3,0.1,0.6,0
	c0.6-0.2,1.1-0.2,1.7-0.5c0.1,0,0.2,0,0.2,0c0.3,0.1,0.7,0.2,1,0.3c0.2,0.1,0.2,0.2,0.3,0.3C116.4,46,116.2,46.3,116,46.4z
	 M84.9,77.1c0-0.1-0.1-0.2-0.1-0.4c0-0.5-0.3-0.7-0.7-0.9c-0.1,0.2-0.2,0.2-0.2,0.3c-0.4,0.4-0.4,0.4-0.3,0.8
	c0.1,0.4,0.4,0.7,0.4,1.2c0,0.2,0.2,0.2,0.4,0c0.1-0.1,0.2-0.2,0.2-0.3c0-0.2,0-0.4,0.3-0.5C85,77.3,84.9,77.2,84.9,77.1z
	 M86.4,62.1c0,0.2,0,0.5-0.2,0.7c-0.2,0.2-0.4,0.4-0.6,0.7c-0.2,0.2-0.5,0.2-0.5,0c-0.1-0.6,0-1.1,0.2-1.7c0.1-0.2,0.2-0.6,0.3-0.9
	h-0.1c0.2-0.6,0.4-1.1,0.7-1.6c0.1-0.1,0.2-0.2,0.3-0.3c0-0.1,0.2-0.2,0.2-0.1c0.2,0.1,0.2,0.2,0.3,0.3c0.1,0.1,0,0.2-0.1,0.2
	C86.5,60.3,86.3,61.2,86.4,62.1z M86.7,72.1c-0.2,0.1-0.3,0.2-0.6,0.2v0.2c0.2,0,0.2,0.1,0.3,0.1s0.2,0,0.2,0
	c0.2-0.1,0.3-0.2,0.4-0.4C87.1,72.1,86.8,72.1,86.7,72.1z M90,49.5c-0.2,0.5-0.4,0.9-0.2,1.2c0.1,0.1,0,0.3-0.1,0.4
	c-0.4,0.2-0.3,0.4-0.4,0.7c-0.2,0.5-0.3,1.1-0.6,1.6c-0.1,0.3-0.2,0.7-0.1,0.9c0.1,0.2,0,0.4-0.2,0.6c-0.2,0.2-0.4,0.3-0.2,0.6
	c0.1,0.1,0.1,0.2,0,0.3c-0.1,0.2-0.2,0.4-0.3,0.7c-0.2,0.4-0.3,0.7-0.3,1.1c0,0.2-0.2,0.4-0.3,0.6c-0.2,0.2-0.6,0.1-0.5-0.2
	c0-0.4-0.1-0.8,0.2-1.2c0.1-0.6,0.7-1.1,0.7-1.8c0,0,0,0,0-0.1c0.7-1,0.5-2,0.8-2.9c0.1-0.2,0.2-0.4,0.2-0.6
	c0.1-0.2,0.2-0.3,0.2-0.4c0.1-0.4,0.2-0.8,0.5-1.1c0.1-0.2,0-0.3,0-0.4c0-0.2,0.1-0.3,0.2-0.4c0.2-0.1,0.3-0.2,0.4-0.1
	c0,0.1,0.1,0.2,0,0.3C90.1,49.4,90,49.5,90,49.5z M86.9,70.3L86.9,70.3l-0.1,0.2C86.9,70.3,86.9,70.3,86.9,70.3L86.9,70.3z
	 M88.2,70.7c-0.2,0-0.5,0-0.8,0c-0.1,0-0.2,0.1-0.3,0.2c0,0.1-0.1,0.2-0.1,0.2c0,0.1,0.1,0.1,0.1,0.1c0.2,0,0.3-0.1,0.5-0.1
	c0.2,0,0.4,0,0.6-0.1C88.2,70.9,88.3,70.8,88.2,70.7L88.2,70.7z M88.5,68c-0.1,0-0.1-0.1-0.2-0.1c0,0-0.1,0.1-0.2,0.1l0.2,0.1
	L88.5,68z M88.4,68.9L88.4,68.9L88.4,68.9L88.4,68.9z M88.5,69.9L88.5,69.9L88.5,69.9z M88.9,63.4C88.8,63.4,88.8,63.5,88.9,63.4
	l-0.1,0.2L88.9,63.4z M91,62.1c-0.5,0.2-1.1,0.4-1.5,0.1c-0.1-0.1-0.2-0.2-0.3,0c-0.1,0.1,0,0.2,0.1,0.2c0.1,0.2,0.2,0.2,0.5,0.2
	c0.6-0.2,1.1-0.2,1.6-0.2c0.3,0.1,0.7-0.2,0.8-0.5C91.8,61.7,91.5,61.8,91,62.1z M89.6,70.5c-0.1,0-0.1,0.1-0.2,0.1
	C89.5,70.6,89.7,70.7,89.6,70.5c0.2,0,0.2-0.1,0.3-0.2C89.9,70.3,89.7,70.4,89.6,70.5z M89.8,73c-0.1,0.1-0.2,0.2-0.2,0.2
	c0,0,0.1,0.1,0.1,0.2c0.1-0.1,0.2-0.1,0.2-0.2C89.8,73.1,89.8,73,89.8,73z M89.9,54.5L89.9,54.5C89.8,54.5,89.8,54.5,89.9,54.5
	C89.8,54.5,89.8,54.5,89.9,54.5L89.9,54.5z M89.9,72.2L89.9,72.2L89.9,72.2L89.9,72.2L89.9,72.2z M90.8,69.7
	c-0.3,0.1-0.6,0.2-0.8,0.6c0.2,0,0.6-0.1,0.8-0.2c0.2,0,0.2-0.2,0.2-0.2C91.2,69.6,91,69.7,90.8,69.7z M90.5,58.4l-0.1-0.2h-0.1
	L90.5,58.4L90.5,58.4z M91.1,61c-0.1,0-0.2-0.1-0.2-0.1c-0.1-0.1-0.2,0-0.2,0c0.1,0,0.1,0.1,0.1,0.1c0.2,0.1,0.2,0.2,0.3,0.2
	c0.1,0,0.1,0,0.1,0C91.1,61.1,91.2,61.1,91.1,61z M92.1,56.2c-0.1,0-0.2-0.1-0.3-0.1c-0.2-0.1-0.4,0-0.7,0.1s-0.3,0.2-0.2,0.4
	c0.2,0.2,0.1,0.3-0.2,0.6c-0.1,0-0.2,0.1-0.2,0.2s0.1,0.1,0.1,0.2c0.4-0.1,0.7-0.1,1.1-0.2c0.2,0,0.3-0.2,0.5-0.4
	C92.7,56.4,92.6,56.3,92.1,56.2z M91.1,53.3L91.1,53.3L91.1,53.3L91.1,53.3z M91.9,66.9v-0.2l-0.2,0.1l0.1,0.2L91.9,66.9z
	 M93.5,52.7c-0.2-0.1-0.5-0.1-0.7-0.1c-0.2,0.1-0.5,0.2-0.7,0.3c0,0-0.1,0.2-0.1,0.2c0,0,0.1,0.1,0.1,0c0.4,0,0.8-0.1,1.3-0.2
	C93.3,52.9,93.4,52.8,93.5,52.7L93.5,52.7z M92.6,61.7c-0.1,0.1-0.2,0.2-0.3,0.2C92.3,61.9,92.5,61.9,92.6,61.7L92.6,61.7L92.6,61.7
	z M93.9,50.9c-0.3,0-0.7,0-1.1,0c-0.2,0-0.5,0.3-0.5,0.5c0,0.2,0.2,0.2,0.4,0.2c0.3-0.1,0.7-0.2,1.1-0.3c0.1-0.1,0.3-0.1,0.3-0.2
	C94.2,50.9,94,50.9,93.9,50.9z M93.5,57.9c-0.2,0-0.3,0-0.6,0c-0.1,0-0.2,0.2-0.3,0.2c-0.1,0.1,0.1,0.2,0.3,0.2
	c0.2,0,0.3-0.1,0.5-0.2C93.5,58.1,93.5,58.1,93.5,57.9L93.5,57.9z M93.5,48.9c-0.2-0.1-0.4,0.2-0.5,0.3c-0.1,0.1-0.2,0.2-0.2,0.2
	c0,0.2-0.1,0.2-0.1,0.2c-0.1,0.2,0,0.4,0.2,0.4c0.2,0,0.4-0.2,0.4-0.3c0.1-0.3,0.2-0.4,0.5-0.6c0.1,0,0.2-0.2,0.2-0.2
	C93.9,49,93.7,48.9,93.5,48.9z M93,54.1l-0.2,0.2l0.1,0.1C93,54.3,93,54.2,93,54.1C93.1,54.2,93.1,54.1,93,54.1z M93.9,55.3
	c-0.1-0.1-0.2-0.1-0.3-0.1c-0.2,0-0.2,0.2-0.1,0.3c0.1,0.1,0.1,0.2,0.2,0.2c0,0,0.1,0,0.2,0v-0.1C93.9,55.5,93.9,55.4,93.9,55.3z
	 M94.1,54.4c-0.1,0-0.2,0.1-0.2,0.2c-0.2,0.2,0,0.3,0.2,0.3c0.1,0,0.2,0,0.2-0.1C94.4,54.6,94.4,54.3,94.1,54.4z M94.3,45
	c-0.1,0-0.2,0.1-0.2,0.1C94,45,94,45.1,94,45.1c0,0.1,0,0.2,0,0.2c0.3,0.1,0.4,0.3,0.6,0.6c0,0.1,0.2,0.1,0.3,0
	c0.3-0.4,0.6-1.1,0.4-1.1C95,44.6,94.6,44.8,94.3,45z M94.3,44.4L94.3,44.4L94.3,44.4L94.3,44.4z M94.8,52.2
	c-0.1-0.1-0.5,0.3-0.6,0.5c0,0,0,0.1,0.1,0.1c0.1,0.1,0.2,0.1,0.4,0.1c0.1,0,0.2,0,0.4-0.1c0.1-0.1,0.2-0.2,0.2-0.2
	C95.2,52.3,95.1,52.2,94.8,52.2z M97.7,39.6c-0.2-0.1-0.4-0.2-0.7-0.3c-0.2-0.1-0.3-0.1-0.5,0.1c-0.1,0-0.2,0.1-0.2,0.1
	c0,0.1,0,0.2,0.1,0.2c0.2,0.1,0.4,0.2,0.6,0.2c0,0.1,0.1,0.2,0,0.2C97.1,40,97,40,97,40c-0.2,0-0.3,0.2-0.4,0.3c0,0.2,0,0.2-0.2,0.2
	c-0.1-0.1-0.2-0.1-0.2,0.2c-0.1,0.1-0.1,0.2-0.2,0.3c-0.3,0.2-0.4,0.7-0.7,1c-0.3,0.4-0.4,0.7-0.5,1.1c-0.1,0.2-0.2,0.6-0.2,0.8
	c0,0.1,0.1,0.2,0.2,0.1c0.2-0.1,0.5-0.2,0.7-0.5c0.2-0.2,0.5-0.6,0.9-0.6c0.3,0,0.3,0,0.5-0.4c0.1-0.1,0.2-0.2,0.2-0.4
	c0.1,0,0.1-0.1,0.1-0.1c-0.1,0-0.2,0-0.2,0c-0.2,0.1-0.2,0.2-0.4,0.2c-0.2,0-0.3,0-0.4-0.1c-0.1-0.1,0-0.2,0-0.4
	c0-0.1,0.1-0.2,0-0.3c0-0.2,0.1-0.2,0.2-0.3c0.1-0.1,0.2-0.2,0.3-0.2c0.5-0.2,0.6-0.6,0.8-0.9C97.8,39.7,97.8,39.6,97.7,39.6z
	 M95,51L95,51h-0.2l0.1,0.1L95,51z M96,35.9c-0.1,0.2-0.2,0.2,0,0.3c0.2,0.1,0.1,0.2-0.2,0.4c-0.4,0.4-0.4,0.4-0.2,0.7
	c0.1,0.2,0.1,0.3-0.2,0.6c-0.1,0.1-0.2,0.2-0.2,0.4v-0.1c0.2-0.2,0.2-0.3,0.4-0.4c0.1,0,0.2-0.2,0.1-0.2c-0.2-0.2,0.2-0.5,0.2-0.7
	c0-0.2,0.1-0.2,0.2-0.2C96.2,36,96.2,35.7,96,35.9z M95.8,53.1c-0.1,0.1-0.2,0.1-0.3,0.2c0,0-0.1,0.1-0.1,0.2l0.1,0.1
	c0.1,0.1,0.1,0,0.2,0.1c0.1,0,0.1,0,0.2,0c0.2-0.1,0.3-0.2,0.3-0.3C96.2,53.1,96,53.1,95.8,53.1z M95.6,40c0,0.2,0.2-0.2,0.2-0.7
	C95.7,39.5,95.5,39.7,95.6,40z M95.9,49.6c-0.1,0-0.1,0-0.2,0.1L95.9,49.6L95.9,49.6z M97.1,35C97,35,96.9,35,96.9,35
	c-0.1,0.3-0.4,0.6-0.7,0.9c0,0,0,0.2,0.1,0.2c0.3,0.1,0.6-0.1,0.7-0.4c0.1-0.1,0.1-0.1,0.1-0.2c0-0.2,0.1-0.2,0.1-0.4
	C97.2,35,97.1,35,97.1,35z M96.6,50.4c-0.1,0-0.2,0-0.2,0.1c0.1,0.1,0.1,0.1,0.2,0.1c0,0.1,0.1,0,0.2,0
	C96.6,50.4,96.6,50.4,96.6,50.4z M98.2,37c-0.1-0.1-0.3-0.2-0.3-0.2c-0.3,0-0.6,0.1-0.7,0.2c-0.2,0.2-0.3,0.4-0.4,0.6
	c-0.1,0.1-0.1,0.2-0.1,0.3c0.1,0.1,0.2,0.2,0.2,0.2c0.2,0.1,0.3,0.1,0.4-0.2c0.2-0.3,0.4-0.5,0.7-0.6c0.2,0,0.2-0.1,0.2-0.2
	C98.4,37.2,98.3,37.1,98.2,37z M97.3,44.1c-0.2-0.1-0.4,0.2-0.4,0.2c0.1,0.1,0.2,0.2,0.2,0.2c0.2-0.2,0.2-0.2,0.3-0.3
	C97.5,44.2,97.4,44.1,97.3,44.1z M97.6,36L97.6,36c-0.2,0.2-0.1,0.3,0.1,0.3c0,0,0.1-0.1,0.2-0.2C97.8,36.2,97.7,36.1,97.6,36z
	 M98.9,35.8c-0.1-0.1-0.3,0.1-0.3,0.2c0,0,0,0,0.1,0.1c0.1-0.1,0.2-0.1,0.2-0.2C98.9,35.9,98.9,35.8,98.9,35.8z M98.6,36.7
	L98.6,36.7c-0.1,0.1-0.1,0.1-0.1,0.2C98.6,36.8,98.6,36.8,98.6,36.7L98.6,36.7z"/>
<path class="st0" d="M140.5,52.7c-0.1,0.1-0.2,0.1-0.2,0.1c-0.8,0.2-1.2,0.5-1.3,1.1c-0.1,0.5-0.1,1.1-0.2,1.6c-0.1,0,0,0.1,0,0.2
	c0.1,0.9,0.2,1.7-0.2,2.6c-0.1,0.2-0.1,0.5-0.3,0.7c-0.4,0.2-0.3,0.5-0.2,0.7c0.3,0.5,0.2,1,0.2,1.6c-0.3,1.5-0.5,2.9-0.7,4.4
	c0,0.6-0.1,1.2-0.4,1.8c-0.2,0.4-0.4,0.9-0.6,1.3c-0.1,0.2-0.1,0.5-0.1,0.7c0.2,1.1,0,2.4-0.2,3.6c-0.1,0.4-0.3,0.8-0.7,1.2
	c-0.2,0.1-0.3,0.2-0.4,0.2c-1.4,0.2-2.8,0.9-4.1,0.1c0,0-0.2,0-0.2-0.1c-0.4-0.7-1.4-0.9-2-1.4c-0.6-0.4-0.7-1-0.5-1.6
	c0.3-1.2,0.7-2.5,1-3.8c0.2-0.6,0.2-1.1,0.3-1.7c0-0.2,0.2-0.4,0.3-0.5c0.7-0.2,0.8-0.2,0.1-0.5c-0.4-0.2-0.3-0.7-0.1-1.1
	c0.2-0.5,0.6-0.9,0.3-1.5c-0.2-0.3,0.4-0.5,0.7-0.7c0.1-0.1,0.1-0.2,0.1-0.2c-0.1,0-0.2,0-0.2,0c-0.2,0.1-0.5,0.2-0.3-0.2
	c0.2-0.5,0.3-1.1,0.5-1.6c0.2-0.4,0.1-0.9,0.2-1.4c0-0.5,0.4-0.9,0.5-1.3c0.1-0.4,0.2-0.8,0.6-1.2c0.1-0.1,0.1-0.2-0.2-0.2
	c-0.7,0-0.7-0.2-0.6-0.7c0.2-0.8-0.1-1.7,0.3-2.5c0.1-0.2-0.1-0.4-0.3-0.5c-0.3,0-0.6-0.1-0.9-0.1c-1.6,0-3.1-0.1-4.7,0.1
	c-0.7,0.1-1.1,0.2-1.2,0.7c-0.2,0.4-0.6,0.7-0.9,1.1c-0.5,0.6-0.9,1.1-1.3,1.8c-0.2,0.5-0.6,0.9-0.7,1.4c-0.1,0.4-0.3,0.7-0.7,1.1
	c-0.7,0.7-1.4,1.7-1.6,2.6c-0.2,0.4-0.3,0.8-0.8,1.1c-0.6,0.3-0.8,0.9-0.8,1.4c0,0.5-0.2,0.8-0.6,1.1c-0.3,0.5-0.7,1-1.1,1.4
	c-0.7,0.5-1,1-1.3,1.6c-0.1,0.1-0.2,0.2-0.2,0.3c-0.7,0.8-1.1,1.7-1.5,2.5c-0.4,0.7-0.9,1.5-1.3,2.2h0.2c0.2-0.1,0.5-0.1,0.3,0.2
	s-0.3,0.5-0.2,0.8c0,0.2-0.2,0.4-0.3,0.5c-0.6,0.7-0.8,1.3-1.1,2c-0.1,0.2-0.1,0.3,0,0.4c0.2,0.3,0,0.6-0.3,0.7
	c-0.4,0.3-0.7,0.7-1,1.1c-0.2,0.4-0.4,0.7-0.1,1.1c0.2,0.2,0.2,0.5-0.2,0.7c-0.2,0.2-0.5,0.3-0.7,0.4c-0.9,0.2-1.7,0.5-2.5,0.6
	c-0.8,0.1-1.5-0.2-1.9-0.7c-0.2-0.2-0.3-0.3-0.6-0.3c-1.3-0.2-1.9-0.9-1.7-2c0.1-1,0.5-1.9,1.1-2.7c0.2-0.2,0.4-0.5,0.4-0.7
	c0.1-1.2,1-2.3,1.6-3.4c0.9-1.6,1.9-3.1,2.8-4.7c0.2-0.2,0.3-0.5,0.6-0.7c0.4-0.5,0.9-0.9,1-1.5c0-0.2,0.2-0.4,0.4-0.6
	c0.8-0.8,1.5-1.7,1.9-2.7c0.2-0.7,0.7-1.3,1.1-2c0.2-0.3,0.4-0.7,0.6-1c0.1-0.2,0.2-0.3,0.3-0.4c0.9-0.9,1.6-1.8,2.1-2.9
	c0.1-0.2,0.2-0.3,0.3-0.5c0.5-0.7,0.3-1-0.6-1c-1.5,0.1-2.9,0.1-4.5,0.5c-1.1,0.3-2.4,0.6-3.5,0.7c-0.7,0.2-1.3,0.4-1.7,0.8
	c-0.2,0.2-0.4,0.3-0.6,0.5c-0.2,0.2-0.6,0.2-0.8,0.1c-0.4-0.2-0.8-0.5-1.2-0.8c-0.2-0.2-0.2-0.5,0.2-0.7c0.5-0.4,1-0.7,1.6-1.1
	c1.6-0.8,3.3-1.3,5-1.8c0.7-0.2,1.3-0.4,2-0.6c0.2,0,0.3-0.2,0.5-0.2c1.9,0,3.6-0.8,5.4-1.1c1.3-0.2,2-1.1,2.5-1.9
	c0.6-1.1,1.4-2,2-3c0.2-0.3,0.5-0.7,0.7-1.1c0.5-1,1.6-1.8,1.8-2.9c0.2-0.6,0.5-1.1,1.1-1.6c0.2-0.2,0.2-0.3,0.3-0.5
	c0.3-0.5,0.7-1.1,1.1-1.6c0.5-0.5,0.7-1,1-1.6c0.2-0.4,0.7-0.7,0.9-1.1c1-1.6,1.7-3.2,2.6-4.8c0.1-0.2,0.2-0.3,0.2-0.5
	c-0.2-0.3,0-0.7,0.2-1c0.1-0.2,0.1-0.5,0.1-0.7c-0.1-0.3,0.2-0.6,0.5-0.7c0.7-0.4,1.3-0.7,1.9-1.1c0.2,0,0.3-0.1,0.5-0.1
	c1.6-0.2,3.1,0,4.3,0.7c0.8,0.4,1.1,1.1,1.2,2c0,0.4-0.1,0.9-0.2,1.3c-0.2,0.5-0.4,1.1,0.2,1.5c0.2,0.1,0.2,0.4,0.2,0.7
	c0.1,1.1,0.1,2.4,0.2,3.5c0,0.2,0.1,0.5,0.2,0.8c0,0.2,0.1,0.5,0,0.7c-0.2,0.7-0.1,1.3,0,2c0.1,0.3,0.1,0.7,0,1
	c-0.2,0.9,0.1,1.7-0.5,2.5c-0.1,0.2,0,0.4,0.1,0.6c0.3,0.4,0.3,0.8,0.2,1.2c-0.2,0.7-0.4,1.4-0.6,2.1c-0.1,0.3-0.1,0.7-0.2,1.1
	c0,0.2-0.1,0.3-0.2,0.4c-0.7,0.3-0.5,0.6-0.2,0.9c0.6,0.5,0.7,1.1,0.3,1.8c-0.2,0.7,0.1,1.1,0.7,1.4c0.2,0,0.3,0.1,0.5,0.2
	c0.2,0.2,0.4,0.3,0.4,0.5C141.2,52.4,141,52.7,140.5,52.7z M103.1,77.1L103.1,77.1H103H103.1z M103.4,76.2l-0.2-0.1
	c0,0.1,0,0.1,0,0.1H103.4L103.4,76.2z M103.5,77.8v-0.2C103.5,77.7,103.4,77.7,103.5,77.8L103.5,77.8L103.5,77.8z M105.1,73
	c0.3-0.6,0.7-1.1,0.7-1.8c-0.7,0.6-1.2,1.2-1.5,2c0,0.2-0.1,0.3-0.2,0.4c-0.6,0.4-0.5,0.8-0.5,1.2s0.1,0.5,0.6,0.4
	c0.2,0,0.6-0.1,0.8-0.2c0.6-0.2,0.8-0.7,0.3-1.1C104.8,73.8,104.8,73.5,105.1,73z M118.6,54.2c-0.2-0.2-0.5-0.2-0.9,0.1
	c-0.4,0.2-0.5,0.1-0.4-0.2c0-0.1-0.1-0.2-0.2-0.2c-0.1,0.1-0.2,0.1-0.3,0.2c-0.3,0.5-0.7,1.1-1.1,1.6c-0.5,0.7-0.9,1.6-1.5,2.3
	c-1.1,1.6-2.3,3.2-3.3,4.8c-0.2,0.2-0.4,0.6-0.6,0.8c-0.4,0.7-1.1,1.4-1.6,2.1c-0.5,1-1.2,1.9-1.8,2.9c-0.6,0.8-1,1.7-1.2,2.6
	c0.7-0.5,1.1-1.1,1.6-1.8c0.6-1,1-2,1.8-2.9c0.4-0.5,0.9-1,0.9-1.6c0-0.1,0.1-0.2,0.2-0.3c0.7-0.6,1.2-1.3,1.7-2
	c0-0.1,0.2-0.1,0.2-0.1c0,0.1,0.1,0.1,0.1,0.2c0,0.2,0,0.2,0,0.4c0.2-0.1,0.2-0.1,0.4-0.2c0.2-0.1,0.3-0.2,0.5-0.4
	c0.2-0.2,0.2-0.4-0.2-0.5c-0.1,0-0.2-0.1-0.3,0c-0.4,0-0.5-0.1-0.3-0.4c0.2-0.2,0.3-0.7,0.6-0.9c0.5-0.4,0.7-0.9,1.1-1.4
	c0.4-0.7,0.9-1.3,1.3-2c0.1-0.1,0.1-0.2,0.2-0.2c0.2-0.1,0.4-0.2,0.5-0.1c0.2,0,0.2,0.2,0.2,0.2s-0.1,0.2-0.1,0.3s0,0.2,0,0.2
	c0.1,0,0.2,0,0.2,0c0.4-0.4,0.8-0.8,1.3-1.1c0.8-0.6,1.3-1.3,1.3-2.2C118.9,54.4,118.8,54.3,118.6,54.2z M107.7,71.7
	c-0.1,0-0.2,0-0.2,0c-0.2,0.2-0.3,0.3-0.5,0.5c0,0.1,0,0.2,0.1,0.2c0,0.1,0.2,0.1,0.2,0c0.2-0.2,0.4-0.3,0.6-0.5
	C107.7,71.7,107.7,71.7,107.7,71.7z M107.2,70.9c-0.1,0.1-0.1,0.2-0.2,0.2c0,0.1,0.2,0.1,0.2,0.2c0.1-0.1,0.2-0.2,0.2-0.2
	c0.1-0.1,0.1-0.2,0.1-0.3C107.5,70.8,107.3,70.8,107.2,70.9z M108.7,68.5l-0.1,0.2C108.6,68.7,108.7,68.7,108.7,68.5l0.2,0.1
	C108.8,68.5,108.8,68.5,108.7,68.5z M109.3,69.3L109.3,69.3l0.3-0.2L109.3,69.3z M109.9,67.3c-0.1-0.1-0.2-0.2-0.2-0.2
	c-0.1,0.1-0.2,0.1-0.2,0.2v0.1L109.9,67.3z M110.4,67.7l-0.1,0.2c0,0,0.1,0.1,0.2,0.1c0,0,0.1-0.1,0.2-0.1L110.4,67.7z M112.9,64.1
	L112.9,64.1h-0.6h-0.1H112.9z M116.1,59.2c-0.6,0.2-1.2,0.2-1.6,0.7c-0.4,0.5-0.8,1.1-1.2,1.6c0,0.1,0,0.2,0.1,0.2
	c0.1,0,0.2,0,0.2,0c0.1-0.1,0.2-0.2,0.3-0.2c0.3-0.5,0.9-0.8,1.6-1.1c0.5-0.2,0.7-0.6,0.8-0.9C116.3,59.4,116.1,59.2,116.1,59.2z
	 M114.7,61.6c-0.1,0.1-0.2,0.1-0.2,0.2c-0.3,0.4-0.7,0.9-1,1.3c-0.1,0.1,0,0.2,0,0.2c0.2,0,0.3,0,0.4-0.1c0.2-0.5,0.6-1,0.9-1.4
	C114.7,61.7,114.7,61.7,114.7,61.6L114.7,61.6z M119.7,52.7c-0.2-0.1-0.7,0.2-0.7,0.2c0.1,0.2,0.2,0.3,0.5,0.6
	c0.2-0.2,0.3-0.3,0.3-0.4C119.9,52.9,119.8,52.7,119.7,52.7z M122.7,45.8c-0.8,0.7-1.4,1.5-2,2.3c-0.1,0.2-0.3,0.6,0,0.7
	c0.2,0,0.5-0.2,0.7-0.4c0.2-0.2,0.3-0.6,0.4-0.8c0.1-0.3,0.2-0.6,0.6-0.7L122.7,45.8z M126.9,41.7c-0.5,0.1-0.7,0.4-1,0.7
	c-0.1,0.1-0.1,0.2-0.2,0.4c-0.2,0.1-0.3,0.2-0.5,0.2c-1.1,0.1-1.5,0.7-1.7,1.3c-0.1,0.2-0.2,0.6,0.3,0.5c0.1,0,0.2,0.2,0.2,0.2
	c-0.3,0.7-0.5,1.4-1.6,1.6c0.1,0.6-0.2,1.1-0.7,1.7c0,0.1,0,0.2,0.1,0.3c0.1,0,0.3,0,0.4,0c0.5-0.2,0.7-0.6,0.9-1
	c0.2-0.5,0.3-1.1,1.1-1.3c0.6-0.2,0.9-0.5,1.1-1c0.1-0.2,0.3-0.3,0.5-0.5c0.1-0.1,0.2-0.2,0.2-0.3c-0.2-0.1-0.4-0.2-0.1-0.5
	c0.2-0.2,0.1-0.5,0.2-0.7c0.2-0.2,0.5-0.4,0.7-0.6c0.2-0.1,0.2-0.2,0.2-0.3C127.3,42.3,127.1,41.7,126.9,41.7z M123.1,45.5
	C123,45.5,123,45.5,123.1,45.5c-0.2,0-0.2,0.1-0.2,0.1L123.1,45.5z M125.4,41.8h-0.2H125.4z M128.6,39.7c-0.1-0.1-0.2-0.1-0.3,0
	c-0.2,0.2-0.5,0.6-0.7,0.8c-0.1,0.2-0.5,0.3-0.1,0.5c0.1,0,0.3-0.2,0.5-0.3c0.2-0.2,0.4-0.5,0.7-0.7
	C128.6,39.9,128.7,39.8,128.6,39.7C128.7,39.7,128.7,39.7,128.6,39.7z M132.5,45.5c0.1-0.2,0.2-0.4,0.1-0.6
	c-0.2-0.2-0.2-0.5,0.1-0.7c0.3-0.5,0.2-0.9,0.1-1.3c-0.2-0.4-0.2-0.7,0-1.2c0.1-0.2,0.2-0.4,0.2-0.7c0-0.1,0-0.2-0.1-0.2
	c-0.1-0.1-0.2-0.1-0.3,0c-0.2,0.1-0.4,0.2-0.5,0.4c-0.2,0.6-0.7,1-1.3,1.5c-0.4,0.3-0.7,0.7-0.8,1.2c-0.2,0.4-0.3,1-0.7,1.3
	c-0.8,0.9-0.9,2-1.8,2.9c-0.1,0-0.1,0-0.1,0.1c-0.2,0.2-0.1,0.4,0.2,0.5c0.4,0.1,0.8,0.2,1.3,0.2c0.6,0.1,1.1,0.2,1.7,0.2h0.6
	c0.7,0,1.5-0.7,1.3-1.3C132.3,47.1,132.2,46.3,132.5,45.5z M130.1,37.3c-0.7,0.2-1.1,0.7-1.2,1.3c-0.1,0,0,0.1,0,0.2
	c0.1,0,0.2,0,0.2-0.1c0.4-0.3,0.8-0.7,1.2-1c0.1-0.1,0.1-0.2,0.2-0.3C130.3,37.3,130.2,37.3,130.1,37.3z M131.4,35.5
	c-0.5,0.1-0.6,0.4-0.7,0.7c-0.1,0.2-0.2,0.3-0.2,0.4c0,0,0.1,0.1,0.2,0.2c0.2-0.1,0.3-0.2,0.4-0.3C131.2,36.1,131.6,35.9,131.4,35.5
	C131.5,35.5,131.4,35.4,131.4,35.5z M131.7,67.6c0-0.1-0.2-0.2-0.2-0.2c-0.1,0-0.2,0.1-0.2,0.1c-0.2,0.6-0.5,1.1-0.7,1.5
	c0,0.5,0,0.9,0,1.2c0.1,0.1,0.2,0.2,0.3,0.2c0.1,0,0.2-0.1,0.3-0.2c0.1-0.2,0.2-0.3,0.2-0.5c-0.2-0.3-0.1-0.7,0.2-1
	C132,68.4,131.8,68,131.7,67.6z M131.9,66.6l-0.1-0.2c-0.2,0.1-0.3,0.2-0.5,0.3c-0.1,0,0,0.1,0.1,0.2L131.9,66.6z M132.7,63.3
	c0.1-0.1,0-0.2,0-0.4c-0.1-0.4-0.2-0.7,0.2-1.1c0.1-0.1-0.1-0.2-0.1-0.3c-0.1-0.2-0.2-0.3-0.3-0.4c-0.1-0.1-0.2-0.2-0.3-0.2
	c-0.1,0.1-0.2,0.2-0.2,0.2c-0.2,0.8-0.2,1.6-0.4,2.4c0,0.7,0,1.3,0.1,2c0,0.2,0.1,0.2,0.2,0.4c0.2-0.1,0.4-0.2,0.5-0.3
	c0.2-0.2,0.3-0.5,0.2-0.8C132.4,64.3,132.4,63.8,132.7,63.3z M134.1,53.2c-0.4,0.1-0.7,0.2-0.8,0.5c-0.2,0.3-0.5,0.6-1,0.7
	c-0.1,0.1-0.2,0.2-0.2,0.2c-0.1,0.1-0.1,0.2-0.1,0.2c0.1,0.1,0.2,0.1,0.2,0.1c0.2,0,0.6,0,0.6,0c0.1,0.5,0.2,1,0.1,1.6
	c-0.2,0.7-0.4,1.3-0.6,2h0.1c0,0.3-0.1,0.7-0.1,1.1c0,0.1,0.1,0.2,0.2,0.2c0.2,0,0.4-0.1,0.5-0.2c0.6-0.8,1.1-1.6,1.1-2.5
	c0-0.2-0.3-0.3-0.3-0.6c0-0.5,0.1-1,0.7-1.4c0.1-0.1,0.1-0.2,0.1-0.2c-0.4-0.2-0.2-0.4,0-0.7c0.1-0.2,0.2-0.4,0.2-0.6
	C134.8,53.3,134.6,53.1,134.1,53.2z M132.2,34.1L132.2,34.1L132.2,34.1z M133.6,52.7L133.6,52.7c0.1,0,0.2,0,0.2-0.1L133.6,52.7z
	 M134.5,46.7c-0.1,0.2-0.2,0.2-0.3,0.3c-0.1,0.2-0.1,0.3-0.2,0.5c0,0.2,0,0.3,0.1,0.5c0,0,0.1,0.1,0.2,0.1s0.2-0.1,0.2-0.1
	c0.2-0.3,0.2-0.7,0.3-1C134.7,46.9,134.6,46.8,134.5,46.7z M134.6,45.2c0,0-0.1-0.1-0.2-0.1c-0.1,0-0.2,0.1-0.2,0.1
	c-0.1,0.2-0.1,0.3-0.1,0.4c0,0.2,0,0.4,0.1,0.6c0,0.1,0.2,0.2,0.2,0.1c0.2,0,0.2-0.1,0.2-0.2C134.7,45.8,134.7,45.5,134.6,45.2z"/>
<path class="st0" d="M176.5,73.9c-0.6,0.9-1.1,1.9-1.8,2.9c-0.2,0.1-0.4,0.4-0.7,0.5c-1.4,0.4-2.5,0.1-2.5-1.1
	c0-1.7-1.1-2.5-2.5-3.1c-1.4-0.7-2.8-1.4-3.6-2.7c-0.4-0.6-1-0.9-1.5-1.4c-0.9-0.8-2-1.6-2.9-2.5c-0.7-0.8-1.5-1.7-2.5-2.4
	c-0.7-0.3-1.1-1-1.6-1.6c-0.5-0.6-0.8-1.1-1.6-1.2c-0.4,0-0.5-0.6-0.7-0.9c-0.2-0.5-0.4-1-1-1.2c-0.3-0.2-0.7-0.4-0.9-0.7
	c-0.5-1-1.6-1.1-2.6-1.6c-0.3-0.2-0.7,0.1-0.9,0.5c-1.1,2.2-2.1,4.3-2.8,6.6c-0.2,0.3-0.3,0.7-0.6,1.1c-1,1.6-1.7,3.4-2.3,5
	c-0.8,2.5-1.8,4.8-2.6,7.3c-0.2,0.7-0.6,1.3-1.2,2c-0.6,0.7-1.2,1.6-1.9,1.5c-0.6-0.1-1.1-0.7-1.3-1.2c-0.3-0.9-0.2-2,0.2-3.1
	c0.7-2.1,1.4-4.3,2.1-6.6c0.6-1.7,1.1-3.4,1.6-5.2c0.8-2.4,1.7-4.8,2.7-7.2c1-2.5,2.1-5.2,2-7.6c0-0.6,0.2-1.1,0.7-1.6
	c0.7-0.8,1.1-1.6,1.1-2.5c0.1-0.5,0.3-1,0.7-1.6c1.2-1.6,2.1-3.4,2.5-5.2c0.2-1.1,0.7-2.2,1.1-3.4c0.2-0.5,0.5-1,1-1.3
	c0.6-0.5,0.5-1-0.2-1c-0.2,0-0.5,0-0.8,0c-1.6,0.3,0,0.7-1.6,1c-0.6,0.1-1.1,0.2-1.6,0.2c-1.1,0-1.4-0.5-1.1-1.6
	c0.2-0.8,0.3-1.6,0.2-2.3c-0.2-1.5,0.3-3.1,1.3-4.8c0.7-1,1.8-1.6,2.7-1.4c1.6,0.6,0.7-0.1,2.4,0.5c0.4,0.2,1,0,1.5-0.2
	c1.2-0.2,2.4-0.2,3.5,0c2.5,0.2,4.8,0.5,7.2,0.7c0.3,0,0.7,0.1,1.1,0.1c0.2,0.1,0.3,0.2,0.6,0.2c2.8,0.1,5,1.1,7.6,1.4
	c1.6,0.2,2.9,0.7,4.4,1.1c0.3,0.2,0.7,0.3,1.1,0.4c1.3,0.2,2,0.9,1.6,2.4c-0.2,0.6,0,1,0.2,1.4c0.7,1.1,0.3,2.5-1.2,3.8
	c-0.7,0.7-1.6,1.3-1.7,2.2c-0.1,0.5-0.6,0.9-1.1,1.1c-1.6,0.6-2.9,1.6-4.5,2.5c-1.8,1.1-3.7,1.9-5.7,2.3c-1.1,0.2-2.1,0.7-3.4,1.1
	c-0.9,0.2-1.8,0.4-2.8,0.7c-0.4,0.1-0.8,0-1.2,0.2c-1.3,0.5-2.5,0.9-3.6,1.1c-0.9,0.1-1.4,0.9-0.9,1.4c0.8,0.7,1.1,1.7,2.1,2
	c0.6,0.2,0.7,0.8,1.1,1.2c1,0.9,2,1.7,3.1,2.6c0.6,0.6,1,1.1,1.6,1.7c0.3,0.3,0.7,0.7,1.1,1.1c1.1,1,2.2,1.9,3.3,2.9
	c0.1,0.1,0.2,0.2,0.2,0.4c-0.2,0-0.5,0-0.6-0.1c-0.8-0.5-1.6-1.1-2.4-1.6c-0.1-0.1-0.2-0.2-0.3-0.2c-0.4-0.2-0.6-0.8-1.3-0.3
	c-0.4,0.3,0,0.8,0.2,1.1c0.1,0.2,0.2,0.5,0.3,0.5c1,0,1.1,0.8,1.4,1.3c0.2,0.2,0.5,0.6,0.8,0.6c1.3,0.1,1.9,0.8,2.5,1.6
	c0.1,0.1,0,0.2,0,0.4c-0.2,0.1-0.3,0.1-0.5,0.1c-0.1,0-0.3,0.1-0.6,0.2c0.1,0.2,0,0.3,0.2,0.3c0.6,0.5,1.1,0.9,1.5,1.6
	c0.2,0.7,1.1,0.7,2,0.3c0.9-0.3,1.1-0.7,0.8-1.4c-0.4-0.8-0.9-1.6-1.8-2c-0.5-0.2-1-0.7-0.8-1.5v-0.1h0.1l-0.1,0.1
	c1.1,0.9,2.2,1.8,3.4,2.7c0.4,0.4,0.9,0.7,1.4,1c0.6,0.3,1.1,0.6,1.5,1c0.5,0.4,0.6,0.9,0.4,1.6c-0.4,1.7-0.3,3.3-0.2,4.9
	C176.8,73,176.7,73.4,176.5,73.9z M159.9,41.1c-0.2,0-0.6,0.2-0.9,0.2c-0.8,0.3-1.6,0.6-2.5,0.9c-0.5,0.2-1.1,0.7-1.7,1
	c-0.4,0.3-0.3,0.8,0.1,0.9c0,0,0.1,0.1,0.2,0c1.6-0.5,3-1.1,4.5-1.6c0.2-0.1,0.4-0.2,0.5-0.4c0.3-0.2,0.9-0.5,0.7-0.8
	C160.6,41.2,160.3,41.1,159.9,41.1z M165.4,41.9c-0.2,0-0.2,0-0.4,0c-3,1.1-6.1,2.1-9.2,2.8c-0.4,0.1-0.8,0.3-0.9,0.7
	c-0.1,0.3,0.2,0.5,0.3,0.7c0.1,0.2,0.3,0.2,0.7,0.2c0.3,0,0.7,0,1.1-0.1c2.2-0.6,4.3-1.1,6.5-2.5c0.3-0.2,0.7-0.3,1.1-0.5
	c0.3-0.2,0.7-0.3,1-0.5c0.2-0.2,0.3-0.5,0.3-0.6C165.8,42,165.5,42,165.4,41.9z M175.7,31.4c-0.1-0.1-0.3-0.2-0.6-0.2
	c-1.1-0.2-2-0.5-2.6-1.3c-0.2-0.3-0.6-0.5-0.8-0.5c-2-0.2-4,0.5-6,0.9c-0.1,0-0.2,0.5-0.2,0.6c0.2,0.2,0.6,0.2,0.7,0.4
	c0.2,0.1,0.2,0.3,0.3,0.5c-0.2,0.1-0.5,0.3-0.7,0.3c-1.3-0.2-2.9-0.1-4.3,0.1c-1.6,0.1-3.1,0.2-4.7,0.2c-0.2,0.1-0.4,0.1-0.6,0.2
	c-0.4,0.1-0.8,0.5-0.7,0.8c0.1,0.5,0.3,0.9,0.3,1.3c-0.1,1,0.3,1.6,1,2c0.2,0.1,0.4,0.2,0.3,0.5c-0.2,1,0.2,1.8-0.2,2.8
	c-0.1,0.2-0.1,0.5,0,0.6c0.2,0.1,0.4-0.1,0.7-0.1c0.1,0,0.2-0.1,0.2-0.2c0.7-0.7,1.1-0.6,1.9-0.7c1.3-0.2,2.8-0.2,4.1-1.6
	c0.2-0.2,0.6-0.3,0.7-0.3c0.8,0.1,1.6-0.2,2.5-0.8c0.4-0.2,0.8-0.3,1.1-0.5c1.1-0.3,2.3-0.7,3.4-1.1c0.4-0.2,1-0.3,1.3-0.7
	c1-0.8,1.8-1.8,2.9-2.6C175.8,32,175.8,31.5,175.7,31.4z M157.9,52C157.9,52,157.9,52,157.9,52l-0.2,0.1c0,0,0.1,0,0.1,0.1L157.9,52
	z M159.8,56c0,0.1-0.2,0.2-0.3,0.3c0.1,0.1,0.2,0.2,0.2,0.3c0.1-0.2,0.3-0.2,0.4-0.3C160,56.3,159.9,56.2,159.8,56z M163.9,29.6
	c-0.3-0.1-0.7-0.2-1.1-0.2c-0.2,0-0.7,0.2-0.8,0.4c-0.3,0.4,0.1,0.6,0.3,0.7c0.1,0,0.2,0.1,0.4,0.1c0.2,0,0.4,0,0.6-0.1
	c0.2,0,0.5-0.2,0.6-0.3C164,30.1,164,29.7,163.9,29.6z M163.1,40.2c-0.3,0.1-0.7,0.2-1.1,0.4c0.2,0.3,0.2,0.6,0.4,0.7
	c0.3,0.1,0.8-0.2,0.9-0.5C163.5,40.5,163.4,40.2,163.1,40.2z M162.9,64h-0.2c-0.1,0.1-0.2,0.2-0.2,0.2c0.2,0.2,0.2,0.4,0.3,0.7
	c0.2-0.1,0.2-0.1,0.2-0.1l0.1-0.1C163.1,64.4,163,64.2,162.9,64z M164.8,66c-0.2-0.1-0.6,0.1-1.1,0.2c0.2,0.3,0.4,0.6,0.6,0.7
	c0.1,0.1,0.5-0.1,0.7-0.2C165.2,66.3,165.1,66.1,164.8,66z M170.4,37.8c-0.3-0.1-0.7,0.1-1.1,0.2c-0.9,0.2-1.7,0.6-2.6,0.8
	c-0.6,0.2-1.1,0.5-1.7,0.7c-0.1,0.1-0.2,0.2-0.2,0.4c-0.1,0.2,0.1,0.2,0.2,0.3c0.2-0.1,0.5,0,0.7-0.1c1.5-0.5,3.1-1.1,4.7-1.6
	c0.1-0.1,0.2-0.2,0.3-0.2c0.2-0.2,0.4-0.4,0.4-0.4C170.8,37.9,170.6,37.7,170.4,37.8z M167.7,67.8c-0.1,0-0.4,0.2-0.5,0.2
	c0.1,0.2,0.1,0.5,0.2,0.9c0.3-0.3,0.6-0.4,0.7-0.6C168.3,68.1,168.1,67.8,167.7,67.8z M171.7,39.4c-0.5-0.1-1-0.2-1.6,0.2
	c-0.9,0.5-1.7,1-2.5,1.5c-0.2,0.1-0.4,0.5-0.4,0.6c0.1,0.2,0.3,0.4,0.5,0.3c0.6-0.2,1.2-0.4,1.8-0.7c0.7-0.5,1.3-1,2-1.5
	c0,0,0.1,0,0.2-0.1C171.7,39.6,171.7,39.4,171.7,39.4z M170.3,70.4c-0.2,0-0.3,0.1-0.5,0.2c-0.2,0.1-0.5,0.3-0.5,0.3
	c-0.1,0.2-0.1,0.6,0.1,0.6c0.8,0.2,1.5,0.7,2,1.3c0.1,0,0.2,0.1,0.3,0c0.2,0,0.2-0.2,0.4-0.2c0.1-0.2,0.2-0.3,0.2-0.4
	C172.4,71.3,171.3,70.3,170.3,70.4z M176.8,29.2c-0.1,0-0.3,0-0.5,0.1c-0.1,0.2-0.1,0.4-0.1,0.7c0.3-0.1,0.6-0.2,0.6-0.2
	C176.9,29.6,176.9,29.4,176.8,29.2z M178.7,30c-0.1,0-0.2,0.1-0.4,0c0,0.2,0.1,0.2,0.1,0.3c0.1-0.1,0.2-0.1,0.3-0.1
	C178.8,30.1,178.8,29.9,178.7,30z"/>
<path class="st0" d="M197.3,40.1c0,0.2-0.2,0.2-0.2,0.3c-0.2,0.3-0.4,0.6-0.5,0.8c-0.3,1.2-1,2.5-1.5,3.7c-0.2,0.4-0.7,0.8-0.7,1.3
	s-0.7,0.8-0.7,1.4c0,0.4-0.2,0.9-0.3,1.4c-0.1,0,0,0.1-0.1,0.1c-0.6,0.5-0.7,1.1-0.9,1.7c-0.2,0.4-0.6,0.8-0.2,1.3
	c0.1,0.1,0,0.2-0.1,0.3c-0.2,0.3-0.3,0.7-0.6,0.9c-0.5,0.7-0.8,1.3-0.7,2c0,0.1-0.1,0.2-0.2,0.4c-0.2,0.2-0.2,0.3-0.4,0.5
	c-0.2,0.5-0.2,0.5-0.9,0.4c-0.4,0-0.6,0.1-0.7,0.3c-0.3,0.4-0.4,0.8-0.2,1.3c0.1,0.2,0.2,0.2,0.5,0.2c0.2,0,0.2,0.1,0.4,0.2
	c0.2,0.2,0.1,0.3-0.2,0.5c-0.1,0.1-0.2,0.2-0.2,0.2c0.2,0.2,0.2,0.4-0.3,0.5c-0.7,0.1-0.9,0.5-0.9,0.9s-0.2,0.7-0.5,1.1
	c-0.2,0.2-0.2,0.5-0.3,0.7c-0.2,0.3-0.1,0.5,0.1,0.7c0.2,0.2-0.1,0.2-0.2,0.2c-0.2,0-0.5-0.1-0.5,0.2c0,0.2,0.1,0.4,0.2,0.5
	c0.2,0.2,0.5,0.2,0.7,0.2c0.4,0.2,0.5,0.2,0,0.6c-0.3,0.2-0.2,0.4-0.3,0.7c-0.1,0.5-0.3,1-1.1,1.2c-0.3,0.1-0.7,0.4-0.6,0.7
	c0.3,0.7-0.4,1.2-0.4,1.9c0,0.1-0.2,0.2-0.2,0.2c-0.1,0-0.2-0.1-0.2-0.1c0.1-0.5-0.2-0.7-0.8-0.8c-0.5-0.2-0.6-0.4-0.4-0.8
	c0.1-0.3,0-0.6,0.1-0.9c0.1-0.5,0.1-0.9,0.7-1.3c0.7-0.4,0.7-1,0.4-1.5c0,0-0.2,0-0.3,0c-0.1,0.3-0.5,0.4-0.8,0.3
	c-0.5,0-0.7,0.2-0.8,0.5c-0.1,0.2-0.1,0.4-0.2,0.6c-0.2,0.5-0.2,0.8,0.4,1.1c0.4,0.1,0.3,0.2-0.1,0.4c-0.2,0.1-0.4,0.2-0.5,0.3
	c-0.1,0.4-0.2,0.8-0.2,1.2c-0.1,0.2-0.2,0.6-0.2,0.9c-0.2,0.6-0.4,1.1-0.6,1.6c-0.1,0.3,0.1,0.6,0.1,0.8c0.1,0.4,0.3,0.7-0.2,1.1
	c-0.1,0.1-0.1,0.2,0,0.3c0,0.4,0.1,0.9,0.2,1.3c0,0.1-0.2,0.3-0.2,0.3c-0.2,0-0.4,0-0.6-0.1c-0.1-0.1-0.2-0.2-0.2-0.4
	c-0.1-0.2-0.1-0.6-0.1-0.8c-0.1-1.7,0.2-3.4,0.5-5.2c0.1-0.4,0.1-0.7,0.2-1.1h-0.1c0.3-1.4,0.7-2.8,1.1-4.3c0.1-0.6,0.1-1.1,0.2-1.8
	c0.2-1,0.6-2,0.8-2.9c0.1-0.3,0.2-0.7,0.2-1.1c0.1-1.1,0.4-2.2,1-3.3c0.3-0.5,0.4-1,0.5-1.5c0.1-1.5,0.9-2.9,1.3-4.3
	c0.4-1.4,1.1-2.7,1.5-4c0.4-1.3,1.1-2.5,1.5-3.8c0.2-0.5,0.4-1.1,0.6-1.6c0.1-0.4,0.1-0.9,0.5-1.3c0-0.8,0.5-1.7,0-2.5
	c-0.2-0.2-0.1-0.4,0.2-0.7c1.1-1.1,2.2-1.4,3.8-1.1c0.4,0,0.8,0.1,1.2,0.1c0.9-0.2,1.6,0.2,2.5,0.2c0.5,0.2,0.9,0.4,1.3,0.7
	c0.1,0.1,0.2,0.2,0.2,0.4c-0.1,0.2,0,0.4,0.3,0.6c0.4,0.2,0.4,0.6,0.2,1C198.1,37.8,197.5,39,197.3,40.1z M187,49.5
	c-0.1,0-0.3,0.1-0.3,0.1c-0.2,0.5-0.8,0.8-0.7,1.3c0,0.2-0.4,1.1-0.6,1.1c-0.4,0.1-0.5,0.2-0.4,0.4c0.2,0.7-0.1,1.6,0.2,2.2
	c0,0.1,0,0.2-0.1,0.2c-0.5,0.2-0.2,0.7-0.7,0.9c0.1,0,0.3,0,0.4,0.1c0.1,0.2-0.2,0.2-0.4,0.2c-0.6,0.2-0.3,0.7-0.7,0.8
	c-0.3,0.2-0.2,0.5-0.1,0.7c0.2,0.2,0,0.4-0.4,0.4c-0.1,0-0.2,0.1-0.2,0.2c0,0,0.1,0.2,0.2,0.2c0.7,0.2,0.7,0.2,0.3,0.9
	c-0.1,0.1-0.1,0.2-0.2,0.2c-0.1,0.5-0.2,1.1-0.4,1.6c-0.2,0.5-0.1,1.1-0.5,1.6c-0.1,0.2-0.2,0.3-0.2,0.5c0,0.2-0.1,0.3,0.1,0.4
	c0.3,0.2,0.2,0.4,0.3,0.7c0,0,0.1,0.1,0.2,0.1c0.1,0,0.2,0,0.3-0.1c0.2-0.2,0.3-0.3,0.3-0.4c-0.1-0.6,0.7-1.1,0.3-1.6
	c-0.1-0.1-0.1-0.2,0-0.3c0.5-0.3,0.7-0.7,0.1-1c0,0,0-0.2,0.1-0.2c0.2-0.2,0.2-0.6,0.5-0.8c0.5-0.3,0.5-0.7,0.5-1.1
	c0-0.2,0-0.5,0.2-0.8c0.1-0.2,0.2-0.5,0.2-0.7c0-0.2-0.3-0.2-0.6-0.3c-0.2-0.2-0.2-0.2,0.2-0.4c0.2-0.1,0.4-0.2,0.4-0.3
	c0-0.5,0.3-1,0.8-1.5c0.2-0.2,0.2-0.5-0.1-0.7c-0.3-0.3-0.4-0.4,0.1-0.7c0.3-0.3,0.3-0.6,0.1-0.8c-0.2-0.2-0.1-0.3,0.2-0.5
	c0.2-0.1,0.4-0.3,0.3-0.3c-0.3-0.2-0.2-0.5,0.2-0.7c0.7-0.4,0.3-0.8,0.4-1.3C187.5,49.6,187.1,49.5,187,49.5z M185.7,64.8
	C185.7,64.8,185.6,64.8,185.7,64.8c-0.1,0.1,0,0.2,0.1,0.2c0,0,0.1-0.1,0.2-0.1C185.8,64.8,185.7,64.8,185.7,64.8z M187.4,48.1
	c-0.1,0-0.2,0-0.2,0.1c-0.1,0.2-0.2,0.3-0.2,0.5c0,0.2,0.2,0.3,0.3,0.4c0.2,0,0.3,0,0.3-0.1c0.2-0.1,0.3-0.2,0.3-0.4
	C188,48.3,187.5,48.1,187.4,48.1z M188,46.8c-0.1-0.1-0.2-0.2-0.2-0.2c-0.1,0-0.2,0-0.3,0.1c-0.1,0.1-0.2,0.2-0.2,0.2
	c0,0.1,0,0.2,0.1,0.3c0.1,0.1,0.2,0.2,0.4,0.1c0.1,0,0.2-0.2,0.2-0.2c0-0.1,0-0.1,0.1-0.2C188,47,188,46.9,188,46.8z M188.1,45.9
	L188,46l0.2,0.2c0-0.1,0.2-0.2,0.1-0.2C188.3,46,188.2,45.9,188.1,45.9z M188.9,44.5c-0.1-0.1-0.2-0.2-0.2-0.2
	c-0.2,0-0.3,0.1-0.3,0.2c-0.2,0.2-0.2,0.4,0.1,0.6c0.1,0,0.2,0,0.3-0.1c0.1,0,0.1-0.2,0.2-0.2C188.9,44.6,188.9,44.5,188.9,44.5z"/>
<path class="st0" d="M234.4,51.6c-0.3,2.7-2.2,5-3.9,7.3c-1.9,2.5-4.3,4.8-6.7,7c-1,0.9-2.1,1.7-3.3,2.5c-2,1.2-3.9,2.5-5.9,3.7
	c-1.6,0.9-3.3,1.7-5.1,2.4c-0.9,0.3-1.8,0.7-2.7,1.1c-0.8,0.3-1.8,0.1-2.6,0.5c-0.4,0.2-1.1,0.2-1.7,0.1c-1.3-0.2-2.6-0.5-3.9-0.7
	c-0.2-0.1-0.5-0.2-0.7-0.3c-1.3-0.8-2.5-1.7-3.8-2.7c-0.8-0.6-1.1-1.4-1.1-2.3s0-1.9,0-2.9h-0.2c0.2-2,0.4-3.9,0.8-6
	c0.2-0.8,0.6-1.7,1.1-2.5c0.4-0.7,0.7-1.4,0.9-2.2c0.3-1.1,0.8-2.2,1.4-3.3c0.9-1.6,1.7-3.1,2.3-4.7c0.6-1.3,1.3-2.5,2-3.8
	c0.4-0.7,0.9-1.3,0.9-2c0-0.2,0.1-0.4,0.2-0.5c1.6-2,2.3-4.3,3.3-6.6c0.2-0.2,0.2-0.5,0.4-0.7c1.7-2.4,2.8-4.8,4.6-7.1
	c1-1.1,2.3-2,3.5-2.9c2.2-0.7,4.3-1.5,6.8-0.6c1,0.4,2.2,0.6,3.3,0.9c1.6,0.6,2,1.7,1,2.8c-0.8,0.8-1.7,1.7-3.2,1.9
	c-1.1,0.2-2,0.7-2.7,1.3c-0.8,0.7-1.5,1.4-2.2,2.1c-0.1,0.2,0,0.5,0.1,0.7c0,0.1,0.5,0.1,0.7,0.1c1.9-0.8,3.7-0.7,5.7-0.2
	c1.1,0.3,2.4,0.6,3.7,0.7c2.5,0.3,4.2,1.6,6.1,2.6c0.5,0.7,1.1,1.6,1.5,2.4c1.6,3.5,1.4,7.1,0,10.7
	C234.7,50.9,234.5,51.2,234.4,51.6z M194.8,65.5c-0.1,0.1-0.2,0.2-0.2,0.3c0,0.1,0,0.2,0,0.3c0,0.1,0.2,0.2,0.3,0.2
	c0-0.2,0.1-0.4,0.1-0.6C194.9,65.8,194.8,65.6,194.8,65.5z M202.7,44.5c-0.5,1.1-1.1,2.1-1.6,3.3c-1.2,2.4-2.5,4.7-3.4,7.2
	c-0.2,0.5-0.4,1-0.7,1.5c-0.3,0.6-0.7,1.1-0.8,1.8c-0.5,1.5-1,2.9-1.4,4.5c-0.1,0.1,0.1,0.2,0.2,0.2c0.1,0.1,0.4,0,0.4-0.1
	c0.2-0.2,0.4-0.6,0.6-0.8c0.4-0.9,0.7-1.7,1.1-2.5c0-0.2,0.2-0.2,0.2-0.3c0.1,0.2,0.2,0.3,0.2,0.5c0.1,0.2,0.1,0.4,0,0.7
	c0.7-0.4,0.7-1.1,1-1.6c0.1-0.1-0.1-0.3-0.1-0.3c-1.1-0.2-0.7-0.7-0.7-1.1c0.2-0.8,0.6-1.6,0.9-2.2c0.7-1.5,1.3-2.9,2-4.3
	c0.7-1.4,1.7-2.8,2.3-4.3c0.5-1.1,1.5-2.2,1.3-3.4C203.4,43.4,203,43.9,202.7,44.5z M196.8,65.2c-0.1-0.1-0.2-0.2-0.2-0.2
	c-0.1,0-0.2,0.1-0.3,0.1l0.2,0.4L196.8,65.2z M197.5,60.6c-0.2,0.1-0.2,0.1-0.3,0.2c0,0.1,0.2,0.2,0.2,0.2c0.1,0,0.1-0.1,0.1-0.2
	C197.5,60.8,197.5,60.7,197.5,60.6z M199,56.1c-0.2,0.2-0.2,0.6-0.3,0.9c0,0.1,0.2,0.1,0.4,0.2c0.2-0.2,0.7-0.5,0.7-0.7
	c0.2-0.7,1.1-1.2,0.5-1.9C199.2,54.7,199.3,55.5,199,56.1z M232.1,44c0-0.1-0.2-0.2-0.3-0.2c-0.2-0.1-0.5,0-0.7,0.1
	c-0.6,0.4-0.8,1-0.8,1.6c-0.1,0.7-0.2,1.3-0.2,2c0,0.2-0.1,0.5-0.2,0.7c-0.1,0.1-0.4,0.2-0.6,0.2c-0.2,0-0.5-0.2-0.5-0.3
	c0-0.7,0.2-1.6,0.1-2.3c0-0.7-0.1-1.5-0.1-2.3c0-0.1,0-0.2,0.1-0.3c1-2,0-3.7-1.2-5.3c-0.2-0.2-0.5-0.3-0.8-0.3
	c-2.5-0.2-4.9-0.1-7,1.1c-0.4,0.2-0.9,0.4-1.3,0.7c-1.2,0.6-2,1.4-2.1,2.5c0,0.5-0.1,0.9-0.2,1.4c-0.3,0.7-0.2,1.5,0.4,2.2
	c0.2,0.4,0.6,0.9,1,1.3c0.9,1.1,1.6,2.5,1.4,3.8c-0.3-0.4-0.7-0.8-0.9-1.2c-0.4-0.7-0.7-1.3-1.1-2c-0.5-0.8-1.1-1.6-2.2-2.2
	s-1.9-1.2-2.9-1.9c-0.6-0.4-1.2-0.2-1.6,0.3c-0.2,0.6-0.4,1.1-0.7,1.6c-2,2.5-2.8,5.4-4.4,8c-0.6,1.1-1.1,2.2-1.3,3.3
	c-0.2,1.4-0.8,2.6-1.6,3.8c-0.7,1.2-1.1,2.5-1.1,3.8c0,0.2,0.1,0.5,0,0.7c-0.7,1.5-0.5,3-0.6,4.6c-0.2,2.2-0.2,2.4,2.5,1.4
	c1.8-0.7,3.4-1.4,5.2-2.2c0.2-0.1,0.6-0.3,0.8-0.4c1.1-0.1,1.7-0.6,2.4-1.1c0.4-0.3,0.9-0.6,1.4-0.8c0.9-0.4,1.8-0.7,2.6-1.2
	c0.9-0.4,1.8-1,2-1.9c0.2-0.4,0.5-0.8,1.1-1c0.9-0.4,1.8-0.7,2.7-1.1c1.2,0.3,1.5-0.3,1.8-0.9c-0.9-0.2-1.1-0.6-0.7-1
	c0.2-0.2,0.3-0.3,0.5-0.5c1-0.7,1.8-1.5,2.2-2.5c0.2-0.4,0.7-0.8,1-1.1c0.3-0.2,0.6-0.2,0.7,0.2c0.1,0.3,0.2,0.5,0.7,0.4
	c0.7-0.2,1.2-0.5,1.6-1c0.3-0.4,0.5-1,0.9-1.3c0.8-0.7,0.9-1.4,1-2.1c0-0.8,0.6-1.5,0.1-2.3c-0.3-0.5,0-1,0.7-1.3
	c0.2-0.2,0.7-0.5,0.7-0.7C232.2,45.9,232.1,45,232.1,44z M201.7,51.4c-0.1-0.1-0.3,0-0.4,0.1c-0.2,0.2-0.5,0.4-0.6,0.6
	c0,0.2,0.1,0.4,0.2,0.5c0.2,0.1,0.6,0,0.7-0.1c0.2-0.2,0.3-0.4,0.5-0.6C202,51.7,202,51.5,201.7,51.4z M206.5,39.5
	c-0.1,0.1-0.2,0.1-0.2,0.1c-0.9,1.1-1.6,2.2-1.9,3.5c0.2-0.2,0.6-0.2,0.7-0.4c0.6-1,1.1-2,1.6-2.9C206.6,39.7,206.5,39.6,206.5,39.5
	z M219,50.6L219,50.6L219,50.6L219,50.6z M223.1,59.9c-0.1,0.1-0.1,0.2-0.1,0.2c0.2,0,0.3-0.1,0.4-0.2c0.4-0.3,0.6-0.8,0.2-0.7
	C223.4,59.5,223.3,59.7,223.1,59.9z M225,57.8c-0.1,0,0,0.2,0,0.2c0.1,0,0.3,0,0.3-0.1c0.1-0.1,0.2-0.2,0.2-0.4
	C225.3,57.7,225.1,57.7,225,57.8z M225.6,57.5C225.6,57.5,225.7,57.5,225.6,57.5c0.1-0.1,0.1-0.1,0.1-0.2L225.6,57.5z M225.8,60.5
	c-0.1,0.1-0.2,0.2-0.2,0.2c0,0.2,0.1,0.2,0.2,0.3c0-0.1,0.2-0.2,0.2-0.2C226,60.7,225.9,60.6,225.8,60.5z M228.3,58.1
	c0,0.1,0,0.2,0,0.2s0.1,0.1,0.2,0.1c0-0.1,0.1-0.2,0.1-0.2S228.3,58.1,228.3,58.1z"/>
<path class="st0" d="M270.8,40.4c-0.7,0.7-0.7,1.4-0.4,2.1c0.2,0.7,0,1.3-0.6,1.7c-1.1,0.8-1.4,1.9-1.3,2.9c0.1,1-0.2,1.7-0.9,2.5
	c-0.2,0.2-0.4,0.5-0.6,0.7c-0.4,0.8-1,1.4-1.9,1.5c-0.6,0.1-0.9,0.7-0.6,1.1c0.2,0.3,0.4,0.5,0.1,1c-0.2,0.3-0.2,0.8-0.2,1.2
	c-0.1,1.1-0.2,2.2-1.1,3.2c-0.4,0.6-0.5,1.1-0.3,1.7c0.2,0.6,0,1.1-0.4,1.6c-0.7,0.7-0.7,1.7-1.6,2.2c-0.2,0-0.2,0.4-0.2,0.6
	c-0.2,0.4-0.2,0.9-0.3,1.2c-0.2,0.4-0.1,0.6-0.1,0.9c0.1,0.9,0,1.8-0.2,2.8c0,0.4,0,0.7,0.4,0.7c0.5,0.1,1.1,0.1,1.1,0.7
	c0,0.6-0.2,1.1-0.9,1.5c-0.4,0.2-0.7,0.7-0.8,1.2c-0.3,1-0.8,1.3-1.9,1.6c-0.9,0.2-1.8,0.3-2.2-0.5c-0.6-1.1-1.5-1.5-2.5-1.7V73
	h-0.1c0.1,0.1,0.1,0.2,0.1,0.2c0,0.1-0.1,0.2-0.1,0.2c0-0.1-0.1-0.2-0.1-0.2c0-0.1,0.1-0.2,0.1-0.2v-0.1h0.1
	c-0.1-0.4-0.4-0.6-0.8-0.7c-0.5-0.2-0.7-0.7-0.5-1.2c0.2-0.7,0.2-1.3,0-1.9c-0.4-1.5,0-2.9,0.5-4.3c0.3-0.9,0.5-1.8,0.7-2.6
	c0.2-1.1,0.6-2.1,0.9-3.2c0.4-1.3,0.9-2.6,1.4-4c0-0.2,0-0.5-0.2-0.6c-0.1-0.1-0.4,0-0.6,0.2c-0.7,0.5-1.2,1.1-1.8,1.6
	c-1.6,1.6-2.9,3.4-4.6,4.8c-1.3,1.1-2.4,2.6-3.9,3.5c-0.7,0.4-1.1,0.8-1.4,1.6c-0.1,0.5-0.4,0.8-0.9,0.8c-0.5,0-0.8,0.2-1.1,0.7
	c-0.6,1.2-0.8,1.3-1.9,1c-0.2-0.1-0.3-0.2-0.5-0.2c-1.1,0.3-1.4-0.2-1.8-1.1c-0.2-0.6-0.8-1-1.3-1.4c-0.1-0.1-0.4,0.1-0.6,0.2
	c-0.1,0-0.1,0.3-0.1,0.5c0,0.1,0.1,0.2,0.1,0.3c0,0.1-0.1,0.2-0.2,0.2c-0.1,0-0.3,0-0.3-0.1c-0.7-1.9-1.2-3.8-0.2-6.1
	c0.1-0.3,0.2-0.7,0.2-1.1c0.1-0.9,0.4-1.7,0.9-2.5c0.2-0.5,0.5-1,0.5-1.4c0-1.1,0.5-2,1-2.9c0.8-1.8,1.4-3.6,2-5.3
	c0.3-0.7,0.5-1.6,1.1-2.2c0.2-0.2,0.2-0.6,0.3-0.8c0.7-1.7,1.3-3.4,2-5.2c0.1-0.2,0.1-0.4,0.2-0.6c1.2-1.3,1.7-3,2.8-4.4
	c0.7-0.9,1.6-1.6,2.5-2.3c1-0.6,2.1-0.4,2.9,0c0.9,0.5,2,1.1,2.2,2.3c0.3,1.1,0.5,2.1-0.1,3.4c-0.2,0.4-0.2,0.9-0.4,1.4
	c-0.1,0.2-0.1,0.7-0.3,0.8c-0.9,1.1-1,2.6-1.9,3.7c-0.2,0.1-0.2,0.3-0.2,0.5c0.3,1.1-0.5,2.1-1,3c-0.7,1.2-1.1,2.5-1.6,3.7
	c-0.4,0.9-0.8,1.7-1.1,2.5c-0.4,0.9-0.8,1.8-1.1,2.8c-0.2,0.7-0.6,1.5-0.2,2.1c0.6-0.4,1.1-0.8,1.7-1.3c4.2-3.4,7.9-7.2,11.5-11.3
	c0.5-0.5,0.9-1.1,1.2-1.6c1.1-2,2.4-3.9,3.2-6c0.8-2.2,3.2-3.5,5.3-3.5c0.5,0,0.9,0.2,1.3,0.2c0.2,0,0.4,0,0.4,0.2
	c0.5,0.8,1,1.6,1.4,2.5c0.2,0.4,0.1,1,0.1,1.6C271,39.6,270.9,40,270.8,40.4z M237.6,56.2c-0.3-0.3-0.9,0-1.1,0.5
	c-0.1,0.2-0.2,0.3-0.1,0.5c0.2,1,0.1,2-0.7,2.9c-0.2,0.3-0.2,0.7-0.2,1.1c-0.1,0.1-0.2,0.2-0.2,0.3s0,0.3,0.1,0.3
	c0.2-0.1,0.3-0.1,0.4-0.2c0.6-0.9,1.1-1.9,1.6-2.8c-0.5-0.8,0.2-1.2,0.9-1.5c0.1-0.1,0.2-0.4,0.1-0.5
	C238.2,56.7,237.9,56.3,237.6,56.2z M235.7,63.6l-0.2-0.2l-0.2,0.2l0.2,0.2L235.7,63.6z M243.5,59.5c-0.2,0.2-0.3,0.4-0.5,0.7
	c0.2-0.2,0.4-0.2,0.7-0.4c0,0,0.1-0.2,0.1-0.2C243.6,59.5,243.5,59.5,243.5,59.5z M260.4,50c-0.1,0-0.3,0.1-0.4,0.2
	c-0.4,0.4-0.8,0.8-1.3,1.1c-0.5,0.3-0.8,0.7-1.1,1.2c-0.4,0.7-0.9,1.5-1,2.4c-0.1,0.2-0.2,0.7-0.3,0.8c-0.8,0.7-0.8,1.4-0.8,2.3
	c0,0.3-0.2,0.7-0.4,1.1c-0.3,0.5-0.9,0.9-0.5,1.6c-0.6,0.6-0.1,1.1-0.2,1.6c-0.8,1.7-0.5,3.5-1.3,5.5c0.1,0.7,0.2,1.5,0.2,2.3
	c0.1,0.3,0.2,0.7,0.4,0.8c0.4,0.2,0.4-0.4,0.7-0.7c0.2-0.2,0.4-0.5,0.7-0.7c0.1-0.2,0.2-0.4,0.2-0.6c-0.2-1,0.2-1.7,0.8-2.5
	c0.2-0.3,0.4-0.8,0.4-1.1c0-0.7-0.4-1.2-0.3-1.8c0.2-0.7,0.9-1.3,1-2c0.2-1.1,0.6-2.2,1.1-3.3c0.1-0.2,0.2-0.3,0.2-0.5
	c-0.2-0.8,0.3-1.5,0.7-2.2c0.5-0.9,0.8-1.8-0.2-2.5c-0.3-0.2-0.2-0.6,0.3-0.7c0.7-0.1,1-0.4,1.1-1.1c0.1-0.2,0.2-0.6,0.2-0.8
	C260.5,50.3,260.4,50,260.4,50z M257.2,65.3c0,0-0.2,0.2-0.2,0.2c0.2,0.2,0.3,0.2,0.5,0.4h0.2c0-0.1,0.1-0.2,0.1-0.3
	C257.6,65.5,257.4,65.3,257.2,65.3z M259.6,67.3L259.6,67.3L259.6,67.3L259.6,67.3z M261.1,48.7c0-0.1,0-0.2-0.1-0.2
	c-0.1-0.1-0.2,0-0.2,0.1l0.1,0.3L261.1,48.7z"/>
<path class="st0" d="M299,57.8c-0.1,0.3-0.7,0.5-1,0.7c-0.1,0.1-0.1,0.4-0.1,0.4c0.9,0.2,0.7,0.7,0.3,1.1c-0.8,1.1-1.7,2.2-2.6,3.3
	c-0.2,0.2-0.2,0.5-0.4,0.8c-0.1,0.1-0.2,0.2-0.3,0.3c-0.1-0.1-0.1-0.2-0.2-0.3c-0.2,0-0.4,0-0.5,0.1c-1.1,1.2-2,2.5-3,3.8
	c-0.6,0.7-1.7,1.1-2.1,1.8c-0.7,1.2-1.8,1.4-3,1.6c-0.6,0.6-1.1,1.3-1.8,1.6c-2.5,1.2-5.1,2.4-7.6,3.4c-1.1,0.5-2.1,1.1-3.2,1.2
	c-1.1,0.2-2.2-0.2-3.3-0.2c-3-0.1-5.4-1.3-7.7-2.7c-2.1-1.2-3-3-1.6-5.2c2.6-3.8,6.3-6.8,10.2-9.6c2.6-1.8,5.3-3.5,8-5.3
	c0.3-0.2,0.7-0.3,1-0.4l-0.3,0.7c0.8-0.3,1.6-0.7,2.5-1c0.2-0.1,0.5-0.2,0.7-0.2c-0.1,0.2-0.1,0.6-0.2,0.7c-1.1,0.8-2.1,1.6-3.2,2.4
	c-2.1,1.6-4.3,3.2-6.3,4.9c-1.1,0.9-2.4,1.9-2.5,3.4c-0.1,0.7,0.2,1.6-1.1,1.6c0,0-0.1,0.1-0.1,0.2c0.6,1.6-1.6,2-1.9,3.2
	c-0.2,0.5-0.2,1.1,0.1,1.4c0.4,0.4,0.9,0.8,1.8,0.2c1.4-0.9,3.1-1.4,4.6-2.1c1.4-0.7,2.7-1.6,4-2.5c0.2-0.1,0.5-0.1,0.7-0.2
	c0.6-0.2,1.1-0.2,1.6-0.4c0.1,0,0.2-0.2,0.2-0.3c-0.1,0-0.2,0-0.3,0.1c-0.2,0.1-0.4,0.2-0.7,0.2c-0.1,0.1-0.2,0.1-0.3,0.1
	c0-0.2,0.1-0.3,0.2-0.3c0.7-0.3,1.6-0.6,2.3-1c0.5-0.3,0.9-0.8,1.4-1.1v-0.1l-0.3-0.2l1-0.7c-0.1,0.1-0.1,0.2-0.1,0.2
	c-0.2,0.2-0.4,0.5-0.6,0.7c0.3-0.5,0.7-1,1.1-1.5c0.1-0.2,0.2-0.3,0.3-0.5c0.6-0.6,1-1.1,1.6-1.7c0.2-0.2,0.5-0.2,0.7-0.2
	c0.2,0.2,0.4,0.5,0.3,0.7c-0.2,0.4-0.6,0.8-1,1.2c-1.1,1.1-2.3,2.4-3.5,3.5c-0.3,0.4-0.6,0.9-1.1,1.3c-0.6,0.4-1.2,0.9-1.9,1.1
	c-1.5,0.4-1.4,1.1-0.9,2.1c0.3,0.6,0.5,0.8,1.1,0.3c1.8-1.6,3.8-3.1,5.5-4.7c1-0.9,1.8-1.9,2.5-2.9c0.6-0.8,1-1.7,1.4-2.6
	c0.2-0.2,0.3-0.4,0.5-0.7c0.2-0.5,0.4-1.1,0.6-1.6c0,0-0.3-0.1-0.5-0.1c-0.2,0-0.2,0.2-0.4,0.2c-0.5,0.1-1.1,0.2-1.6,0.2
	c0.2-0.4,0.2-0.8,0.5-1.1c1.6-2,2-4.3,2.4-6.6c0-0.2-0.6-0.7-0.9-0.8c-1.6-0.3-3.3-0.5-4.9-0.9c-1.9-0.5-3.8-1.1-5.6-1.6
	c-0.6-0.2-1-0.8-1.5-1.1c-0.1-0.1-0.3,0-0.5,0l0.2,0.2v0.1v-0.1l-0.2-0.2c-1-0.8-1.9-1.6-2.8-2.4c-0.7-0.5-1.4-0.8-1.9-1.4
	s-1-1.4-1-2.1c-0.1-2.1,0.2-4.3,1.6-6.1c1.1-1.5,2.1-3.1,3.4-4.4c1.4-1.3,3-2.4,4.8-3.4c2-1.4,4.4-2,6.9-2.1
	c2.2-0.1,4.6-0.2,6.8,0.8c0.9,0.4,2,0.7,2.9,1.2c1.7,1.1,1.9,2.3,0.2,3.9c-0.5,0.5-0.7,1.1-1.1,1.7c-0.2,0.2-0.5,0.4-0.8,0.5
	c-1.7,0.7-1.6-0.8-2.1-1.5c-0.7-1-1.2-1.1-2.1-0.4c-1.6,1.1-3,2.1-4.6,3.2c-1.1,0.7-2.4,1.3-3.2,2.2c-1.3,1.2-3.1,2.3-3.5,4.1
	c-0.1,0.4-0.7,0.7-0.9,1.1c-1.2,2.1,0.7,4.3,3.7,4.3c2.5,0,5.1,0.1,7.5,1.1c2,0.8,4.2,1.6,6.2,2.4c0.5,0.2,0.8,0.6,1,1
	c0.4,0.9,0.5,1.9,1.5,2.5c0.2,0.2,0.2,0.7,0.1,1.1C299.8,55,299.5,56.4,299,57.8z M264.4,71C264.4,71,264.4,71,264.4,71
	c-0.1,0-0.1,0-0.2,0H264.4L264.4,71z M266.2,66.4c-0.2,0.2-0.4,0.2-0.6,0.3c-0.2,0.1-0.1,0.2-0.2,0.6c0.4-0.2,0.6-0.3,0.7-0.5
	C266.3,66.7,266.3,66.6,266.2,66.4z M266,71.5c0,0-0.1-0.1-0.2-0.1v0.1C265.9,71.5,265.9,71.6,266,71.5C266,71.5,266,71.5,266,71.5z
	 M266.3,70.8L266.3,70.8L266.3,70.8L266.3,70.8L266.3,70.8z M267.9,64.9l-1.1,0.2l0.2,0.7c0.3-0.2,0.6-0.4,0.8-0.6
	C268,65.2,267.9,65,267.9,64.9z M269.9,63.6l-0.2-0.3c-0.3,0.2-0.7,0.4-1.1,0.7c-0.1,0.1,0,0.2,0,0.3L269.9,63.6z M269.1,73.5
	c-0.1,0-0.2,0-0.4,0.1c0,0.1,0.1,0.2,0.2,0.3c0.1,0,0.2-0.1,0.5-0.1C269.3,73.7,269.2,73.5,269.1,73.5z M270.2,73.2
	c-0.1-0.1-0.1-0.2-0.2-0.2s-0.2,0.1-0.4,0.1c-0.1,0.1,0,0.2-0.1,0.2L270.2,73.2z M270.1,62.6L270.1,62.6L270.1,62.6L270.1,62.6
	L270.1,62.6z M270.8,72.6c0,0,0.1,0.1,0.1,0.2c0.3-0.2,0.7-0.3,0.9-0.5c0.1,0,0.1,0,0.2-0.1C271.6,72.4,271.2,72.5,270.8,72.6z
	 M272.3,60.8c-0.2,0.3-0.6,0.7-0.8,1c-0.1,0.1,0,0.2,0.1,0.3c0.3-0.3,0.7-0.7,1-1C272.6,61.1,272.4,60.8,272.3,60.8z M272.1,72.2
	c0.9,0,1.6-0.2,1.7-1C273.2,71.6,272.6,71.9,272.1,72.2z M273.8,59.9c-0.2,0-0.3,0.1-0.5,0.1c0.1,0.2,0.1,0.3,0.2,0.3
	c0.2,0.1,0.3,0,0.7-0.1C273.9,60,273.9,59.9,273.8,59.9z M275.8,70.4c-0.1-0.1-0.2-0.2-0.2-0.2c-0.6,0.2-1.1,0.6-1.6,0.8L275.8,70.4
	z M274.6,75.7l-0.5,0.3c0,0.1,0.2,0.2,0.2,0.2c0.2-0.1,0.3-0.2,0.4-0.2C274.7,75.9,274.6,75.8,274.6,75.7z M276.6,58.4
	c-0.2-0.2-0.2-0.3-0.5-0.4c0-0.1-0.2,0.1-0.3,0.2l0.3,0.6L276.6,58.4z M276.1,75.1c-0.1,0.1-0.2,0.2-0.2,0.2c0,0.2,0.1,0.2,0.1,0.5
	c0.2-0.2,0.3-0.2,0.3-0.3S276.2,75.2,276.1,75.1z M276.6,56.8L276.6,56.8h-0.2H276.6z M277.1,69.1c-0.1,0.1-0.2,0.2-0.4,0.6
	c0.5-0.3,0.7-0.4,0.7-0.5c0.1-0.1,0.2-0.2,0.2-0.3C277.5,69,277.3,69,277.1,69.1z M277.4,74.7c-0.2,0-0.2,0.1-0.5,0.2
	c0.2,0.1,0.2,0.2,0.3,0.2c0.1,0,0.2-0.1,0.2-0.1C277.5,74.8,277.4,74.8,277.4,74.7z M278,55.8l-0.2,0.1L278,56L278,55.8z
	 M278.6,55.4l-0.4,0.3c0.2-0.1,0.3-0.1,0.5-0.2C278.7,55.6,278.7,55.5,278.6,55.4z M281.5,53.6l-0.2,0.2h-0.1l-0.1,0.1l-0.1-0.1h0.2
	l0.1-0.1L281.5,53.6l2.3-1.1h0.1c-0.1,0-0.1,0-0.1,0L281.5,53.6z M283.9,71.2c-0.7,0.5-1.5,1-2.2,1.5c-0.1,0,0,0.2,0,0.2
	c0.2,0,0.3-0.1,0.4-0.1c0.7-0.5,1.3-1,2-1.5c0.1,0,0.1-0.1,0.1-0.1C284,71.2,283.9,71.2,283.9,71.2z M283.8,52.5
	C283.8,52.5,283.8,52.5,283.8,52.5L283.8,52.5z M284.5,70.7l0.2,0.2c0.1-0.1,0.2-0.2,0.2-0.2L284.5,70.7z M285.6,68.6
	C285.7,68.6,285.7,68.6,285.6,68.6L285.6,68.6z M286,71.4l-0.1-0.4l-0.2,0.1L286,71.4z M286.5,69.7c-0.1,0.1-0.2,0.1-0.3,0.2
	c-0.1,0.1-0.1,0.2-0.1,0.6c0.3-0.2,0.5-0.2,0.6-0.4C286.7,69.9,286.6,69.8,286.5,69.7z M287.5,69C287.4,69,287.4,69,287.5,69
	L287.5,69L287.5,69L287.5,69z M291.1,56.6H291v0.1L291.1,56.6z M293.8,55.5c-0.1-0.1-0.2-0.2-0.2-0.2l-0.1-0.1v0.1L293.8,55.5
	L293.8,55.5z"/>
<path class="st1" d="M310.6,73c-0.8,1.1-1.9,1.9-3.2,2.3c-0.1,0.1-0.3,0.1-0.3,0.1c-1-0.7-2.5-0.7-2.9-1.9c-0.1-0.6-0.4-1.1-0.6-1.6
	c-0.1-0.5-0.2-1.1-0.2-1.5c0.4-0.8,0.7-1.4,1-2c0.3-1,0.7-1.9,1-2.9c0.2-0.7,0.5-0.9,1.2-0.7c1.6,0.6,3.3,1.3,3.6,3.1
	c0.2,1,0.6,1.8,0.9,2.8C311.4,71.5,311.1,72.2,310.6,73z"/>
<path class="st0" d="M0,106.5c0-0.6,0.1-1.3,0.3-1.9c0.2-0.6,0.6-1.2,1-1.7s1-0.9,1.6-1.2c0.6-0.3,1.4-0.5,2.2-0.5
	c1,0,1.8,0.2,2.5,0.6c0.7,0.4,1.2,1,1.6,1.7l-1.6,1.1c-0.1-0.3-0.3-0.5-0.5-0.7c-0.2-0.2-0.4-0.4-0.6-0.5c-0.2-0.1-0.5-0.2-0.7-0.3
	s-0.5-0.1-0.7-0.1c-0.5,0-1,0.1-1.3,0.3c-0.4,0.2-0.7,0.5-0.9,0.8s-0.4,0.7-0.6,1.1c-0.1,0.4-0.2,0.8-0.2,1.2c0,0.5,0.1,0.9,0.2,1.3
	c0.1,0.4,0.4,0.8,0.6,1.1s0.6,0.6,1,0.8c0.4,0.2,0.8,0.3,1.2,0.3c0.2,0,0.5,0,0.7-0.1c0.3-0.1,0.5-0.2,0.7-0.3
	c0.2-0.1,0.4-0.3,0.6-0.5c0.2-0.2,0.4-0.4,0.5-0.7l1.7,1c-0.2,0.4-0.4,0.7-0.7,1c-0.3,0.3-0.7,0.6-1,0.8c-0.4,0.2-0.8,0.4-1.2,0.5
	c-0.4,0.1-0.9,0.2-1.3,0.2c-0.7,0-1.4-0.2-2.1-0.5s-1.2-0.7-1.6-1.2c-0.4-0.5-0.8-1.1-1-1.7C0.1,107.8,0,107.2,0,106.5z"/>
<path class="st0" d="M21.1,111.8v-10.5h4.6c0.5,0,0.9,0.1,1.3,0.3s0.8,0.5,1.1,0.8c0.3,0.3,0.5,0.7,0.7,1.1c0.2,0.4,0.3,0.8,0.3,1.3
	c0,0.7-0.2,1.3-0.5,1.9c-0.3,0.6-0.8,1-1.4,1.2l2.4,3.9h-2.3l-2.1-3.5h-2v3.5H21.1z M23.1,106.5h2.6c0.2,0,0.4,0,0.5-0.1
	c0.2-0.1,0.3-0.2,0.4-0.4c0.1-0.2,0.2-0.3,0.3-0.5s0.1-0.4,0.1-0.7c0-0.2,0-0.5-0.1-0.7c-0.1-0.2-0.2-0.4-0.3-0.5
	c-0.1-0.2-0.3-0.3-0.5-0.4c-0.2-0.1-0.3-0.1-0.5-0.1h-2.5V106.5z"/>
<path class="st0" d="M48.5,110v1.8h-7.3v-10.5h7.1v1.8h-5.1v2.5h4.4v1.7h-4.4v2.7H48.5z"/>
<path class="st0" d="M63.4,101.4h1.8l4,10.5h-2.1l-1-2.6h-3.7l-1,2.6h-2.1L63.4,101.4z M65.8,107.8l-1.4-4.1l-1.5,4.1H65.8z"/>
<path class="st0" d="M87.5,103.1h-3.4v8.7h-2v-8.7h-3.4v-1.8h8.7V103.1z"/>
<path class="st0" d="M99.1,111.8v-10.5h2v10.5H99.1z"/>
<path class="st0" d="M118.2,111.9c-0.8,0-1.5-0.1-2.1-0.5c-0.6-0.3-1.2-0.7-1.6-1.2c-0.4-0.5-0.8-1.1-1-1.7c-0.2-0.6-0.4-1.3-0.4-2
	c0-0.7,0.1-1.4,0.4-2s0.6-1.2,1.1-1.7c0.5-0.5,1-0.9,1.6-1.2c0.6-0.3,1.3-0.4,2.1-0.4c0.8,0,1.4,0.2,2.1,0.5s1.2,0.7,1.6,1.2
	s0.8,1.1,1,1.7c0.2,0.6,0.4,1.3,0.4,1.9c0,0.7-0.1,1.4-0.4,2s-0.6,1.2-1.1,1.7c-0.5,0.5-1,0.9-1.6,1.2
	C119.6,111.8,118.9,111.9,118.2,111.9z M115.1,106.6c0,0.5,0.1,0.9,0.2,1.3c0.1,0.4,0.3,0.8,0.6,1.1s0.6,0.6,1,0.8
	c0.4,0.2,0.8,0.3,1.3,0.3c0.5,0,0.9-0.1,1.3-0.3c0.4-0.2,0.7-0.5,1-0.8c0.3-0.3,0.5-0.7,0.6-1.1c0.1-0.4,0.2-0.8,0.2-1.3
	c0-0.5-0.1-0.9-0.2-1.3c-0.1-0.4-0.3-0.8-0.6-1.1s-0.6-0.6-1-0.8s-0.8-0.3-1.3-0.3c-0.5,0-0.9,0.1-1.3,0.3s-0.7,0.5-1,0.8
	s-0.5,0.7-0.6,1.1C115.2,105.7,115.1,106.2,115.1,106.6z"/>
<path class="st0" d="M137.2,105.1v6.7h-2v-10.5h1.6l5.5,6.9v-6.9h2v10.5h-1.7L137.2,105.1z"/>
<path class="st0" d="M163,104.1c-0.1-0.1-0.2-0.2-0.4-0.3c-0.2-0.1-0.4-0.2-0.7-0.3c-0.3-0.1-0.5-0.2-0.8-0.3
	c-0.3-0.1-0.6-0.1-0.9-0.1c-0.6,0-1,0.1-1.3,0.3c-0.3,0.2-0.4,0.5-0.4,0.9c0,0.2,0.1,0.4,0.2,0.5c0.1,0.1,0.3,0.3,0.5,0.4
	s0.4,0.2,0.7,0.3c0.3,0.1,0.6,0.2,1,0.3c0.5,0.1,1,0.3,1.4,0.4c0.4,0.2,0.8,0.4,1.1,0.6c0.3,0.2,0.5,0.5,0.7,0.8
	c0.2,0.3,0.2,0.7,0.2,1.2c0,0.6-0.1,1-0.3,1.4c-0.2,0.4-0.5,0.7-0.9,1s-0.8,0.4-1.2,0.5c-0.5,0.1-1,0.2-1.5,0.2
	c-0.8,0-1.6-0.1-2.3-0.4c-0.8-0.2-1.5-0.6-2.1-1l0.9-1.8c0.1,0.1,0.2,0.2,0.5,0.3c0.2,0.1,0.5,0.3,0.8,0.4s0.7,0.3,1,0.4
	c0.4,0.1,0.8,0.1,1.2,0.1c1.1,0,1.7-0.4,1.7-1.1c0-0.2-0.1-0.4-0.2-0.6c-0.1-0.2-0.3-0.3-0.5-0.4c-0.2-0.1-0.5-0.2-0.9-0.3
	c-0.3-0.1-0.7-0.2-1.1-0.3c-0.5-0.1-0.9-0.3-1.3-0.5c-0.4-0.2-0.7-0.4-0.9-0.6c-0.2-0.2-0.4-0.5-0.6-0.8c-0.1-0.3-0.2-0.6-0.2-1
	c0-0.5,0.1-1,0.3-1.4c0.2-0.4,0.5-0.8,0.8-1c0.3-0.3,0.8-0.5,1.2-0.6c0.5-0.1,1-0.2,1.5-0.2c0.7,0,1.4,0.1,2,0.3
	c0.6,0.2,1.2,0.5,1.6,0.8L163,104.1z"/>
</svg>
